<svg xmlns="http://www.w3.org/2000/svg" xmlns:xlink="http://www.w3.org/1999/xlink" xmlns:lucid="lucid" width="768" height="669"><g transform="translate(436 -1412)" lucid:page-tab-id="0_0"><path d="M-500 0h1500v2500H-500z" fill="#fff"/><path d="M-364.88 1921a6 6 0 0 1 6-6h84.92a6 6 0 0 1 6 6v28a6 6 0 0 1-6 6h-84.92a6 6 0 0 1-6-6zM-364.88 1915h96.92m0 40h-96.92" fill="#fff"/><path d="M-364.88 1915h16.16m16.15 0h32.3m16.16 0h16.14m0 40h-16.15m-16.16 0h-32.3m-16.16 0h-16.16" stroke="#635dff" stroke-width="3" fill="none"/><path d="M-235.12 1935c0 11.05-10.85 20-24.23 20s-24.23-8.95-24.23-20 10.85-20 24.23-20 24.23 8.95 24.23 20z" fill="#fff"/><path d="M-248.12 1952.58l-1.9.88-5.62 1.3-3.7.24-6-.6-5.3-1.7m-9.07-7.02l-1.4-1.84-1.56-3.35-.8-3.4-.12-2.1.35-3.43 1.08-3.37 1.9-3.33.5-.57m9.16-6.88l1.9-.88 5.63-1.3 3.72-.24 5.97.6 5.32 1.7m9.06 7.02l1.4 1.84 1.55 3.35.8 3.4.13 2.1-.36 3.43-1.08 3.37-1.9 3.33-.5.57" stroke="#635dff" stroke-width="3" fill="none"/><path d="M-364.88 2001a6 6 0 0 1 6-6h84.92a6 6 0 0 1 6 6v28a6 6 0 0 1-6 6h-84.92a6 6 0 0 1-6-6z" fill="#fff"/><path d="M-364.88 1995h96.92m0 40h-96.92M-235.12 2015c0 11.05-10.85 20-24.23 20s-24.23-8.95-24.23-20 10.85-20 24.23-20 24.23 8.95 24.23 20z" stroke="#333" stroke-width="3" fill="#fff"/><path d="M-244.88 1911a6 6 0 0 1 6-6h188a6 6 0 0 1 6 6v48a6 6 0 0 1-6 6h-188a6 6 0 0 1-6-6z" stroke="#000" stroke-opacity="0" stroke-width="3" fill="#fff" fill-opacity="0"/><use xlink:href="#a" transform="matrix(1,0,0,1,-239.87610791076793,1910) translate(17.222222222222214 35.15277777777777)"/><use xlink:href="#b" transform="matrix(1,0,0,1,-239.87610791076793,1910) translate(39.444444444444436 35.15277777777777)"/><use xlink:href="#c" transform="matrix(1,0,0,1,-239.87610791076793,1910) translate(61.66666666666666 35.15277777777777)"/><use xlink:href="#d" transform="matrix(1,0,0,1,-239.87610791076793,1910) translate(83.88888888888887 35.15277777777777)"/><use xlink:href="#e" transform="matrix(1,0,0,1,-239.87610791076793,1910) translate(106.1111111111111 35.15277777777777)"/><use xlink:href="#f" transform="matrix(1,0,0,1,-239.87610791076793,1910) translate(128.33333333333331 35.15277777777777)"/><use xlink:href="#g" transform="matrix(1,0,0,1,-239.87610791076793,1910) translate(150.55555555555554 35.15277777777777)"/><path d="M-235.12 1992.06a6 6 0 0 1 6-6h208a6 6 0 0 1 6 6v45.88a6 6 0 0 1-6 6h-208a6 6 0 0 1-6-6z" stroke="#000" stroke-opacity="0" stroke-width="3" fill="#fff" fill-opacity="0"/><use xlink:href="#h" transform="matrix(1,0,0,1,-230.1238920892319,1991.0555555555557) translate(4.999999999999986 34.77777777777777)"/><use xlink:href="#i" transform="matrix(1,0,0,1,-230.1238920892319,1991.0555555555557) translate(27.222222222222207 34.77777777777777)"/><use xlink:href="#j" transform="matrix(1,0,0,1,-230.1238920892319,1991.0555555555557) translate(49.44444444444443 34.77777777777777)"/><use xlink:href="#k" transform="matrix(1,0,0,1,-230.1238920892319,1991.0555555555557) translate(71.66666666666664 34.77777777777777)"/><use xlink:href="#l" transform="matrix(1,0,0,1,-230.1238920892319,1991.0555555555557) translate(93.88888888888887 34.77777777777777)"/><use xlink:href="#d" transform="matrix(1,0,0,1,-230.1238920892319,1991.0555555555557) translate(116.1111111111111 34.77777777777777)"/><use xlink:href="#e" transform="matrix(1,0,0,1,-230.1238920892319,1991.0555555555557) translate(138.33333333333331 34.77777777777777)"/><use xlink:href="#f" transform="matrix(1,0,0,1,-230.1238920892319,1991.0555555555557) translate(160.55555555555554 34.77777777777777)"/><use xlink:href="#g" transform="matrix(1,0,0,1,-230.1238920892319,1991.0555555555557) translate(182.77777777777777 34.77777777777777)"/><path d="M-136.68 1687.56a6 6 0 0 1 6-6h188a6 6 0 0 1 6 6v88a6 6 0 0 1-6 6h-188a6 6 0 0 1-6-6zM-136.68 1681.56h200m0 100h-200" fill="#fff"/><path d="M-136.68 1681.56H-120m16.66 0H-70m16.66 0H-20m16.66 0H30m16.66 0h16.67m0 100H46.66m-16.67 0H-3.35m-16.67 0h-33.34m-16.67 0h-33.34m-16.67 0h-16.68" stroke="#635dff" stroke-width="3" fill="none"/><use xlink:href="#m" transform="matrix(1,0,0,1,-116.67477628128938,1681.5555555555557) translate(7.955555555555563 59.33333333333333)"/><path d="M-120 1731.56c0 27.6-35.82 50-80 50s-80-22.4-80-50c0-27.62 35.82-50 80-50s80 22.38 80 50z" fill="#fff"/><path d="M-135.5 1761.13l-.4.36-3.16 2.45-3.6 2.48-4.13 2.46-4.65 2.4-5.24 2.3-5.8 2.13-3.47 1.04m-16.84 3.62l-.34.04-7.75.8-8.02.3-1.08.02-8.07-.26-7.8-.73-1.32-.2m-16.83-3.6l-2.66-.77-5.88-2.1-5.3-2.3-4.75-2.38-4.2-2.46-3.66-2.48-3.2-2.47-.78-.68m-11.08-13.1v-.02l-1.1-2.1-.92-2.1-.75-2.03-.6-2-.46-2-.32-1.98-.2-2-.08-1.98v-.26l.06-2 .2-1.97.3-2 .44-2 .58-2 .73-2.03.9-2.07 1.07-2.1.18-.3m11.06-13.12l.4-.36 3.16-2.46 3.6-2.48 4.13-2.46 4.65-2.4 5.24-2.3 5.8-2.14 3.47-1.03m16.84-3.63l.34-.05 7.75-.8 8.02-.3h1.08l8.07.24 7.8.74 1.32.2m16.83 3.6l2.66.77 5.88 2.12 5.3 2.28 4.75 2.4 4.2 2.45 3.66 2.48 3.2 2.47.78.7m11.08 13.1l1.1 2.12.92 2.08.75 2.04.6 2 .46 2 .32 1.98.2 1.98.08 2v.26l-.06 2-.2 1.97-.3 1.98-.44 2-.58 2-.73 2.04-.9 2.07-1.07 2.12-.18.3" stroke="#635dff" stroke-width="3" fill="none"/><g><use xlink:href="#n" transform="matrix(1,0,0,1,-275,1686.5555555555557) translate(40.833333333333336 53.90277777777777)"/></g><path d="M-153.88 1707.56a6 6 0 0 1 6-6h188a6 6 0 0 1 6 6v48a6 6 0 0 1-6 6h-188a6 6 0 0 1-6-6z" fill="#fff"/><path d="M-153.88 1701.56h200m0 60h-200" stroke="#5e5e5e" stroke-width="3" fill="#fff"/><g><use xlink:href="#m" transform="matrix(1,0,0,1,-133.8803095725315,1701.5555555555559) translate(7.955555555555563 39.33333333333333)"/></g><path d="M-140 1731.56c0 16.56-22.4 30-50 30s-50-13.44-50-30c0-16.57 22.4-30 50-30s50 13.43 50 30z" stroke="#5e5e5e" stroke-width="3" fill="#fff"/><g><use xlink:href="#o" transform="matrix(1,0,0,1,-235,1706.5555555555557) translate(15.205 35.15277777777777)"/></g><path d="M-220.34 1695.53H35.42M-220.3 1695.53h-2.04" stroke="#e81313" stroke-width="4" fill="none"/><path d="M51.69 1695.53l-14.28 4.63v-9.27z" stroke="#e81313" stroke-width="4" fill="#e81313"/><g><path d="M290.2 1574.54a6.66 6.66 0 0 1-6.4 6.22l-174.45 6.87a13.26 13.26 0 0 0-9.78 4.9l-63.6 78.34a2.06 2.06 0 0 1-3.65-1.34l1.62-77.74a184.3 184.3 0 0 1 .64-12l11.12-128.96a6.65 6.65 0 0 1 6.5-6.08l240.65-4.13a5.53 5.53 0 0 1 5.6 5.9z" stroke="#e81313" stroke-width="5" fill="#fff"/></g><path d="M40.08 1446.53a6 6 0 0 1 6-6h246.77a6 6 0 0 1 6 6v129.55a6 6 0 0 1-6 6H46.07a6 6 0 0 1-6-6z" stroke="#000" stroke-opacity="0" stroke-width="3" fill="#fff" fill-opacity="0"/><g><use xlink:href="#p" transform="matrix(1,0,0,1,45.0746727124814,1445.527777777778) translate(45.888888888888886 42.27777777777777)"/><use xlink:href="#q" transform="matrix(1,0,0,1,45.0746727124814,1445.527777777778) translate(114.22222222222221 42.27777777777777)"/><use xlink:href="#r" transform="matrix(1,0,0,1,45.0746727124814,1445.527777777778) translate(136.44444444444443 42.27777777777777)"/><use xlink:href="#s" transform="matrix(1,0,0,1,45.0746727124814,1445.527777777778) translate(158.66666666666666 42.27777777777777)"/><use xlink:href="#t" transform="matrix(1,0,0,1,45.0746727124814,1445.527777777778) translate(35.9222222222222 75.16666666666666)"/><use xlink:href="#u" transform="matrix(1,0,0,1,45.0746727124814,1445.527777777778) translate(101.96666666666665 75.16666666666666)"/><use xlink:href="#v" transform="matrix(1,0,0,1,45.0746727124814,1445.527777777778) translate(124.18888888888888 75.16666666666666)"/><use xlink:href="#q" transform="matrix(1,0,0,1,45.0746727124814,1445.527777777778) translate(146.4111111111111 75.16666666666666)"/><use xlink:href="#w" transform="matrix(1,0,0,1,45.0746727124814,1445.527777777778) translate(168.63333333333333 75.16666666666666)"/><use xlink:href="#x" transform="matrix(1,0,0,1,45.0746727124814,1445.527777777778) translate(190.85555555555555 75.16666666666666)"/><use xlink:href="#y" transform="matrix(1,0,0,1,45.0746727124814,1445.527777777778) translate(13.388888888888886 108.05555555555554)"/><use xlink:href="#c" transform="matrix(1,0,0,1,45.0746727124814,1445.527777777778) translate(35.61111111111111 108.05555555555554)"/><use xlink:href="#d" transform="matrix(1,0,0,1,45.0746727124814,1445.527777777778) translate(57.83333333333333 108.05555555555554)"/><use xlink:href="#c" transform="matrix(1,0,0,1,45.0746727124814,1445.527777777778) translate(80.05555555555554 108.05555555555554)"/><use xlink:href="#z" transform="matrix(1,0,0,1,45.0746727124814,1445.527777777778) translate(102.27777777777777 108.05555555555554)"/><use xlink:href="#r" transform="matrix(1,0,0,1,45.0746727124814,1445.527777777778) translate(124.5 108.05555555555554)"/><use xlink:href="#A" transform="matrix(1,0,0,1,45.0746727124814,1445.527777777778) translate(146.72222222222223 108.05555555555554)"/><use xlink:href="#B" transform="matrix(1,0,0,1,45.0746727124814,1445.527777777778) translate(168.94444444444446 108.05555555555554)"/><use xlink:href="#C" transform="matrix(1,0,0,1,45.0746727124814,1445.527777777778) translate(191.16666666666669 108.05555555555554)"/></g><defs><path fill="#333" d="M207-332v100h181v-100H207zm181-306H207v88h181v-88zM207-490v98h181v-98H207zm323 258v67H42v-67h97v-406H55v-67h84v-121h68v121h181v-121h69v121h73v67h-73v406h73zm-350 88l71 19C215-48 158 28 103 77 89 65 61 44 43 34 98-11 150-78 180-144zm142 31l58-31C420-99 466-37 485 4l-60 35C407-1 362-66 322-113zm325-214h206v-166H649c0 57 0 108-2 166zm206-392H649v159h204v-159zm72-68v768c-5 105-66 86-187 92-3-21-13-53-23-72 53 1 103 1 117 0 15 0 21-5 21-21v-240H642c-10 119-35 246-95 342-12-14-42-37-59-44 83-132 91-321 91-464v-361h346" id="D"/><use transform="matrix(0.022222222222222223,0,0,0.022222222222222223,0,0)" xlink:href="#D" id="a"/><path fill="#333" d="M257-834l70 27c-58 85-154 179-242 238-8-17-26-45-38-60 78-51 167-135 210-205zm17 219l65 26c-22 42-50 83-80 122V76h-72v-458c-37 41-76 79-115 110-7-17-27-55-40-73 89-65 185-167 242-270zm143 411l60-34c46 52 98 124 120 172l-63 37c-21-48-71-123-117-175zm542-240H818v110h134v68H818v252c0 45-9 65-40 77s-83 12-160 12c-3-21-14-50-24-71 60 2 115 2 130 1 17-1 21-5 21-19v-252H340v-68h405v-110H329v-69h277v-127H387v-68h219v-124h73v124h228v68H679v127h280v69" id="E"/><use transform="matrix(0.022222222222222223,0,0,0.022222222222222223,0,0)" xlink:href="#E" id="b"/><path fill="#333" d="M342-776c-19 157-18 390-22 593 0 109 70 147 162 147 182 0 285-102 356-205l55 69C826-78 698 46 480 46c-142 0-240-60-240-221-4-205 23-449 1-602" id="F"/><use transform="matrix(0.022222222222222223,0,0,0.022222222222222223,0,0)" xlink:href="#F" id="c"/><path fill="#333" d="M89-664c160-7 562-56 789-62v80c-56 0-143 1-194 16-141 45-226 195-226 312 0 194 180 255 341 261l-29 83C587 19 378-79 378-300c0-155 93-280 184-334-87 10-357 36-464 58" id="G"/><use transform="matrix(0.022222222222222223,0,0,0.022222222222222223,0,0)" xlink:href="#G" id="d"/><path fill="#333" d="M226-696c-26 179-4 611 133 605 51 0 97-102 123-202l63 72C486-53 425 4 357 4c-93 0-183-93-210-350-16-135-4-244-17-352zm516 27c89 115 160 318 174 485l-81 32c-17-178-77-374-171-490" id="H"/><use transform="matrix(0.022222222222222223,0,0,0.022222222222222223,0,0)" xlink:href="#H" id="e"/><path fill="#333" d="M368-110c-5 72 127 88 210 71-9-78-56-132-131-132-45 0-79 27-79 61zM241-735c111 6 360 0 462-17l46 58c-91 57-203 166-313 256 45-15 90-21 134-21 165 0 284 100 284 234C854-65 721 39 512 39c-135 0-218-60-218-142 0-68 61-130 153-130 124 0 191 83 204 175 78-30 123-87 123-168 0-97-98-168-223-168-163 0-253 69-379 197l-58-59c184-153 327-270 494-416-91 5-285 10-365 20" id="I"/><use transform="matrix(0.022222222222222223,0,0,0.022222222222222223,0,0)" xlink:href="#I" id="f"/><path fill="#333" d="M890-830v445c-2 99-74 79-187 84-3-20-14-48-25-68 57 2 107 2 122 0 15 0 19-4 19-18v-443h71zm-187 50v333h-69v-333h69zm-437 50v137h123v-137H266zm123 203H261c-12 86-49 175-150 239-10-14-35-41-49-52 87-53 118-120 130-187H71v-66h126v-137h-93v-66h448v66h-93v137h113v66H459v214h-70v-214zM543-27h406v70H51v-70h417v-126H154v-68h314v-112h75v112h302v68H543v126" id="J"/><use transform="matrix(0.022222222222222223,0,0,0.022222222222222223,0,0)" xlink:href="#J" id="g"/><path fill="#333" d="M940-183H578C649-76 777-11 951 14c-16 15-35 45-45 64C711 44 575-40 499-183h-9C438-84 329 8 101 76c-8-16-29-44-45-60 195-54 297-124 349-199H66v-66h373c12-31 17-63 19-94H181v-62h279v-89H165v-63h295v-83h74v83h309v-115H153v125H81v-192h381v-97h74v97h382v192h-75v53H534v89h295v62H532c-2 31-7 63-16 94h424v66" id="K"/><use transform="matrix(0.022222222222222223,0,0,0.022222222222222223,0,0)" xlink:href="#K" id="h"/><path fill="#333" d="M215-205c37-1 38-36 40-79 0-56-11-127-68-209 23-72 46-165 62-233H148V76H83v-870c65-1 136 3 198-2l46 26c-23 84-52 189-80 271 57 84 70 159 71 222 0 100-30 143-132 135 0-19-5-45-15-64 17 2 32 2 44 1zm211 33l65 18C460-81 407-9 358 39c-13-11-40-29-56-38 50-44 96-108 124-173zm469-48H667V-1c0 36-7 54-35 65-26 10-67 11-132 10-4-18-15-45-24-62 48 1 92 1 104 1 13-1 17-4 17-15v-218H373v-61h522v61zm-143 76l56-31C860-121 916-45 940 5l-60 34c-22-50-78-127-128-183zM380-592c32 22 67 49 90 72 11-16 21-33 31-50-23-20-58-45-90-65-10 15-21 29-31 43zm176-109H450c-5 9-10 19-15 28 31 17 65 40 89 59 12-28 23-57 32-87zm335-57c21-9 37 14 55 20-29 85-77 176-128 238 42 50 91 90 148 117-14 12-35 37-45 56-47-25-88-57-124-96v56H463v-46c-35 37-74 68-114 92-9-15-26-39-41-51 48-25 93-63 133-111-23-22-58-52-90-75-10 11-20 21-30 30-11-10-36-30-50-39 76-63 136-161 169-268l61 14c-7 23-16 45-25 67 37-2 82 4 114-3l41 16c-29 129-85 234-154 313h315c-85-94-142-223-175-377l58-11c23 100 58 191 107 266 31-43 60-100 80-152H728v-56h163" id="L"/><use transform="matrix(0.022222222222222223,0,0,0.022222222222222223,0,0)" xlink:href="#L" id="i"/><path fill="#333" d="M128-290c1-190 41-336 51-467l90 7c-43 152-83 388-59 582 17-45 39-103 55-142l43 32c-32 110-83 193-72 301l-72 5c-20-70-36-184-36-318zm295 13l72 7c-9 36-13 64-13 91 0 45 30 89 166 89 89 0 165-8 245-26l1 84c-61 12-144 20-247 20-227-2-270-93-224-265zm34-315l-1-82c108 18 308 14 407 0v82c-106 11-298 11-406 0" id="M"/><use transform="matrix(0.022222222222222223,0,0,0.022222222222222223,0,0)" xlink:href="#M" id="j"/><path fill="#333" d="M279-839l70 22c-28 70-64 141-103 208V81h-71v-583c-35 49-73 93-110 130-7-17-28-55-42-72 101-95 198-244 256-395zm141 490h177c2-48 1-98 1-148H420v148zm435-148H671c0 50 1 100-1 148h185v-148zm71 211H666c-8 69-26 134-66 192C700-39 826-5 968 12c-16 16-34 45-44 67C783 58 658 19 556-42 506 7 434 49 330 80c-8-16-29-47-45-61C383-6 450-41 496-82c-59-45-108-99-145-163l62-20c30 52 73 96 126 133 32-47 47-99 54-154H351v-274h247v-98H322v-68h276v-107h73v107h288v68H671v98h255v274" id="N"/><use transform="matrix(0.022222222222222223,0,0,0.022222222222222223,0,0)" xlink:href="#N" id="k"/><path fill="#333" d="M164-401c128-25 269-105 442-105 140 0 242 84 242 219C848-96 664 2 397 18l-32-77c214-7 402-67 402-229 0-84-66-145-167-145-123 0-339 90-403 115" id="O"/><use transform="matrix(0.022222222222222223,0,0,0.022222222222222223,0,0)" xlink:href="#O" id="l"/><path fill="#333" d="M377 13C195 13 58-128 58-366c0-237 139-381 325-381 89 0 159 44 201 91l-50 60c-38-41-87-70-150-70-139 0-231 114-231 297 0 185 88 301 228 301 70 0 123-31 170-82l51 58C544-25 472 13 377 13" id="P"/><path fill="#333" d="M303 13C170 13 51-91 51-271c0-181 119-286 252-286s252 105 252 286C555-91 436 13 303 13zm0-76c94 0 158-83 158-208s-64-210-158-210-157 85-157 210S209-63 303-63" id="Q"/><path fill="#333" d="M92 0v-543h75l8 78h3c52-51 108-92 182-92 114 0 166 74 166 213V0h-91v-332c0-102-31-145-103-145-56 0-94 28-149 83V0H92" id="R"/><path fill="#333" d="M263 13c-116 0-155-72-155-181v-301H27v-69l85-5 11-152h76v152h147v74H199v303c0 67 21 105 84 105 19 0 44-7 62-14l18 68c-31 10-67 20-100 20" id="S"/><path fill="#333" d="M92 0v-543h75l8 99h3c50-86 117-137 212-101l-17 80c-18-7-31-9-53-9-45 0-101 32-137 125V0H92" id="T"/><path fill="#333" d="M217 13C126 13 58-43 58-141c0-118 103-177 334-203 0-70-23-137-112-137-63 0-120 29-163 58l-36-63c50-32 127-71 214-71 132 0 188 89 188 223V0h-75l-8-65h-3c-52 43-113 78-180 78zm26-73c53 0 96-25 149-72v-152c-183 22-245 67-245 137 0 62 42 87 96 87" id="U"/><path fill="#333" d="M209 0L13-543h95c51 155 104 312 153 469h4c48-158 101-314 153-469h90L315 0H209" id="V"/><path fill="#333" d="M92 0v-543h91V0H92zm46-655c-36 0-63-25-63-59 0-37 27-59 63-59s63 22 63 59c0 34-27 59-63 59" id="W"/><g id="m"><use transform="matrix(0.022222222222222223,0,0,0.022222222222222223,0,0)" xlink:href="#P"/><use transform="matrix(0.022222222222222223,0,0,0.022222222222222223,14.177777777777779,0)" xlink:href="#Q"/><use transform="matrix(0.022222222222222223,0,0,0.022222222222222223,27.644444444444446,0)" xlink:href="#R"/><use transform="matrix(0.022222222222222223,0,0,0.022222222222222223,41.22222222222222,0)" xlink:href="#S"/><use transform="matrix(0.022222222222222223,0,0,0.022222222222222223,49.6,0)" xlink:href="#T"/><use transform="matrix(0.022222222222222223,0,0,0.022222222222222223,58.22222222222222,0)" xlink:href="#U"/><use transform="matrix(0.022222222222222223,0,0,0.022222222222222223,70.75555555555556,0)" xlink:href="#V"/><use transform="matrix(0.022222222222222223,0,0,0.022222222222222223,82.33333333333334,0)" xlink:href="#U"/><use transform="matrix(0.022222222222222223,0,0,0.022222222222222223,94.86666666666667,0)" xlink:href="#T"/><use transform="matrix(0.022222222222222223,0,0,0.022222222222222223,103.4888888888889,0)" xlink:href="#W"/><use transform="matrix(0.022222222222222223,0,0,0.022222222222222223,109.60000000000001,0)" xlink:href="#U"/><use transform="matrix(0.022222222222222223,0,0,0.022222222222222223,122.13333333333334,0)" xlink:href="#R"/><use transform="matrix(0.022222222222222223,0,0,0.022222222222222223,135.7111111111111,0)" xlink:href="#S"/></g><path fill="#333" d="M371 13C187 13 58-134 58-369s129-378 313-378 313 143 313 378S555 13 371 13zm0-81c131 0 218-118 218-301 0-184-87-297-218-297-132 0-218 113-218 297 0 183 86 301 218 301" id="X"/><path fill="#333" d="M567-281C567-18 341 97 176-56h-3l-8 56H92v-796h91c0 106 2 214-3 316 49-43 110-77 170-77 141 0 217 110 217 276zM183-120C317-1 471-73 472-279c0-120-40-201-143-201-46 0-94 26-146 75v285" id="Y"/><path fill="#333" d="M36 243c-33 0-61-7-80-14l18-70c14 5 32 10 51 10 55 0 68-41 68-107v-605h91V62c0 111-41 181-148 181zm103-898c-36 0-63-25-63-59 0-37 27-59 63-59 35 0 63 22 63 59 0 34-28 59-63 59" id="Z"/><path fill="#333" d="M311 13C167 13 51-92 51-271c0-176 119-286 245-286 154-3 234 132 212 307H142c6 116 77 190 180 190 53 0 96-16 136-43l33 60c-48 31-106 56-180 56zM141-315h291c0-110-50-169-135-169-77 0-145 62-156 169" id="aa"/><path fill="#333" d="M306 13C162 13 51-91 51-271c0-181 123-286 262-286 71 0 120 30 159 64l-47 61c-32-29-65-49-109-49-98 0-170 85-170 210S214-63 314-63c50 0 94-23 128-54l39 61c-48 44-110 69-175 69" id="ab"/><g id="n"><use transform="matrix(0.022222222222222223,0,0,0.022222222222222223,0,0)" xlink:href="#X"/><use transform="matrix(0.022222222222222223,0,0,0.022222222222222223,16.48888888888889,0)" xlink:href="#Y"/><use transform="matrix(0.022222222222222223,0,0,0.022222222222222223,30.222222222222225,0)" xlink:href="#Z"/><use transform="matrix(0.022222222222222223,0,0,0.022222222222222223,36.333333333333336,0)" xlink:href="#aa"/><use transform="matrix(0.022222222222222223,0,0,0.022222222222222223,48.644444444444446,0)" xlink:href="#ab"/><use transform="matrix(0.022222222222222223,0,0,0.022222222222222223,59.955555555555556,0)" xlink:href="#S"/></g><path fill="#333" d="M234 13C157 13 83-19 31-62l45-60c47 38 96 64 161 64 72 0 107-38 107-85 0-55-64-80-124-103-76-28-162-65-162-157 0-86 69-154 187-154 67 0 126 28 169 61l-44 59c-38-28-76-48-125-48-68 0-99 36-99 78 0 52 59 71 120 94 79 30 166 62 166 165 0 88-70 161-198 161" id="ac"/><path fill="#333" d="M275 250c-133 0-225-52-225-146 0-46 30-90 81-123v-4c-29-17-50-46-50-89 0-45 33-81 61-101v-4c-36-29-71-81-71-146-2-145 144-228 280-180h189v70H429c26 25 44 65 44 112 4 144-147 228-279 170-52 42-57 131 60 124h106c126 0 189 40 189 129 0 101-106 188-274 188zm0-484c62 0 115-50 115-129s-51-127-115-127-116 47-116 127c0 79 53 129 116 129zm13 422c104 0 173-55 173-112 0-103-183-49-275-76-106 75-57 194 102 188" id="ad"/><g id="o"><use transform="matrix(0.022222222222222223,0,0,0.022222222222222223,0,0)" xlink:href="#ac"/><use transform="matrix(0.022222222222222223,0,0,0.022222222222222223,10.4,0)" xlink:href="#S"/><use transform="matrix(0.022222222222222223,0,0,0.022222222222222223,18.77777777777778,0)" xlink:href="#T"/><use transform="matrix(0.022222222222222223,0,0,0.022222222222222223,27.400000000000002,0)" xlink:href="#W"/><use transform="matrix(0.022222222222222223,0,0,0.022222222222222223,33.51111111111111,0)" xlink:href="#R"/><use transform="matrix(0.022222222222222223,0,0,0.022222222222222223,47.08888888888889,0)" xlink:href="#ad"/></g><g id="p"><use transform="matrix(0.022222222222222223,0,0,0.022222222222222223,0,0)" xlink:href="#X"/><use transform="matrix(0.022222222222222223,0,0,0.022222222222222223,16.48888888888889,0)" xlink:href="#Y"/><use transform="matrix(0.022222222222222223,0,0,0.022222222222222223,30.222222222222225,0)" xlink:href="#Z"/><use transform="matrix(0.022222222222222223,0,0,0.022222222222222223,36.333333333333336,0)" xlink:href="#aa"/><use transform="matrix(0.022222222222222223,0,0,0.022222222222222223,48.644444444444446,0)" xlink:href="#ab"/><use transform="matrix(0.022222222222222223,0,0,0.022222222222222223,59.955555555555556,0)" xlink:href="#S"/></g><path fill="#333" d="M271-140c44 0 99-66 150-233 25-82 44-176 55-267-190 24-306 187-306 320 0 125 58 180 101 180zm215 91c184-13 336-101 336-305 0-150-95-273-263-287-13 92-32 192-59 285C439-153 360-48 268-48 180-48 91-150 91-313c0-215 192-403 434-403 232 0 380 164 380 364C905-144 768-5 532 26" id="ae"/><use transform="matrix(0.022222222222222223,0,0,0.022222222222222223,0,0)" xlink:href="#ae" id="q"/><path fill="#333" d="M170-489c126-14 224-61 386-63 141 0 246 79 246 220C802-117 611 5 354 43l-47-76c240-30 410-124 410-302 0-83-67-142-169-142-164 0-248 45-353 80zm132-292c109 25 324 45 421 46l-12 77c-110-7-310-27-422-47" id="af"/><use transform="matrix(0.022222222222222223,0,0,0.022222222222222223,0,0)" xlink:href="#af" id="r"/><path fill="#333" d="M320-638c9-51 17-96 15-147l89 5c-13 49-18 88-29 140 119-5 265-21 386-48l1 77c-116 21-274 37-401 42-18 83-41 177-62 234 86-61 167-86 277-86 158 0 250 81 250 197C846-18 636 60 336 27l-22-79c228 32 450-8 450-170 0-74-60-130-176-130-140-1-269 58-323 164l-74-27c49-98 92-242 114-352-67 0-131-4-188-9l-1-79c57 10 137 18 204 17" id="ag"/><path fill="#333" d="M341-2l-68 58C209-24 123-109 52-167l65-57C189-166 279-75 341-2" id="ah"/><g id="s"><use transform="matrix(0.022222222222222223,0,0,0.022222222222222223,0,0)" xlink:href="#ag"/><use transform="matrix(0.022222222222222223,0,0,0.022222222222222223,22.22222222222222,0)" xlink:href="#ah"/></g><g id="t"><use transform="matrix(0.022222222222222223,0,0,0.022222222222222223,0,0)" xlink:href="#ac"/><use transform="matrix(0.022222222222222223,0,0,0.022222222222222223,10.4,0)" xlink:href="#S"/><use transform="matrix(0.022222222222222223,0,0,0.022222222222222223,18.77777777777778,0)" xlink:href="#T"/><use transform="matrix(0.022222222222222223,0,0,0.022222222222222223,27.400000000000002,0)" xlink:href="#W"/><use transform="matrix(0.022222222222222223,0,0,0.022222222222222223,33.51111111111111,0)" xlink:href="#R"/><use transform="matrix(0.022222222222222223,0,0,0.022222222222222223,47.08888888888889,0)" xlink:href="#ad"/></g><path fill="#333" d="M590-474l-70 38c-27-69-91-171-154-244l66-33c66 73 130 171 158 239zM448-280l17 71C327-146 176-80 66-32l-27-77c39-15 86-34 138-56l-17-618 76-3 15 590c64-27 131-56 197-84zM967 16l-62 57C859 4 766-101 681-191 603-73 494 14 338 79c-10-15-41-49-59-64 343-126 449-368 493-800l81 8c-24 214-62 384-132 518 89 90 195 201 246 275" id="ai"/><use transform="matrix(0.022222222222222223,0,0,0.022222222222222223,0,0)" xlink:href="#ai" id="u"/><path fill="#333" d="M465-615H270c-23 50-47 97-74 139 65 38 139 88 187 131 35-79 63-169 82-270zm285-221v459c71 67 152 122 231 158-17 14-40 43-53 63-60-31-121-74-178-124V74h-76v-427c-57-61-109-128-149-196C452-234 302-35 112 71 99 54 71 27 53 16c119-62 220-159 296-294-46-44-122-100-191-142-21 28-43 54-66 77-12-13-44-37-61-48 110-102 193-267 239-446l73 15c-13 47-28 94-45 138h188c22-9 41 10 62 14-4 29-10 57-15 84l39-15c27 50 62 99 102 146v-381h76" id="aj"/><use transform="matrix(0.022222222222222223,0,0,0.022222222222222223,0,0)" xlink:href="#aj" id="v"/><path fill="#333" d="M823-447v-81H568v81h255zm0 136v-82H568v82h255zm0 137v-83H568v83h255zM498-585h112c4-25 7-54 10-84H353v-65h273c3-36 6-71 8-102l74 4c-2 31-6 64-9 98h251v65H691c-3 30-7 59-11 84h215v468H498v-468zM267-833l69 21c-28 74-63 147-103 216V74h-70v-561c-32 46-66 87-101 123-8-17-28-56-42-72 98-96 191-245 247-397zM956-39v65H410v49h-69v-610h69v496h546" id="ak"/><use transform="matrix(0.022222222222222223,0,0,0.022222222222222223,0,0)" xlink:href="#ak" id="w"/><path fill="#333" d="M878-441c-104 35-177 66-289 117 1 57 2 141 3 189h-77c3-38 4-102 4-154-92 50-156 101-156 166 0 78 77 89 179 89 77 0 183-9 270-24l-2 81C627 35 282 94 283-112c0-117 118-191 233-251-10-41-46-61-89-61-128 6-195 93-261 177l-68-51c126-122 191-224 228-302-66 0-130-1-204-6v-75c82 8 153 12 232 9 14-44 23-89 25-123l82 7c-7 28-16 69-30 114 101-5 209-14 303-30l-1 74c-98 15-220 24-328 28-22 51-53 106-89 152 87-54 243-58 268 53 102-48 174-74 262-119" id="al"/><use transform="matrix(0.022222222222222223,0,0,0.022222222222222223,0,0)" xlink:href="#al" id="x"/><path fill="#333" d="M306-721l-44 59c-33-34-105-80-164-109l41-54c59 26 132 69 167 104zm-51 258l-43 61c-35-33-109-77-171-105l42-55c60 25 135 67 172 99zm-43 160l60 43C229-154 171-31 122 63L55 19c46-77 110-208 157-322zm556-201H583v95h185v-95zm-362 0c1 185-9 408-118 578-13-12-44-29-62-36 100-147 109-356 109-506v-268h278v-100h74v100h260v64H406v107h112v-80h65v80h185v-80h68v80h118v61H836v154H518v-154H406zm399 272H558c27 52 67 96 117 133 54-36 99-80 130-133zm39-61c22-7 39 12 58 17-36 90-94 161-167 215 65 35 143 61 230 75-16 14-35 42-45 61-94-19-177-51-247-95-77 44-165 74-255 94-7-17-23-46-36-60 82-15 162-40 233-77-51-43-93-95-124-155l47-14H432v-61h412" id="am"/><use transform="matrix(0.022222222222222223,0,0,0.022222222222222223,0,0)" xlink:href="#am" id="y"/><path fill="#333" d="M501-116c0-17-1-40-1-67-31-6-63-9-96-9-94 0-145 36-145 81 0 46 39 80 137 80 57 0 105-17 105-85zm361 34l-45 70c-58-53-140-113-239-149 1 25 2 47 2 62 0 68-46 139-175 139-142 0-221-51-221-147 0-90 87-151 230-151 29 0 56 2 83 6-2-44-4-91-5-132-95 1-209-4-304-14v-76c90 15 209 21 302 19v-142c-89 2-205-6-282-15v-74c80 14 194 21 283 19 0-42 1-86-3-124h85c-5 34-6 73-6 121 86-3 167-11 254-24l1 73c-78 8-163 16-256 21v142c95-4 186-13 275-26l1 75c-93 12-181 19-275 23 2 51 5 103 7 150 131 36 232 109 288 154" id="an"/><use transform="matrix(0.022222222222222223,0,0,0.022222222222222223,0,0)" xlink:href="#an" id="z"/><path fill="#333" d="M237-619v-82c142 19 386 15 529-1v82c-146 13-382 17-529 1zm-41 310l82 8c-54 157-7 234 214 239 137 0 264-15 339-38l1 86C761 5 635 20 494 20c-201 0-318-66-318-190 0-52 11-98 20-139" id="ao"/><use transform="matrix(0.022222222222222223,0,0,0.022222222222222223,0,0)" xlink:href="#ao" id="A"/><path fill="#333" d="M423-482c134-82 232-116 325-186l43 73c-109 65-238 115-377 205-92 60-147 125-147 200 0 82 78 133 234 133 108 0 240-14 317-34v90c-75 13-189 24-313 24-186 0-321-56-321-204 0-102 65-183 171-257-46-81-98-197-144-305l79-32c40 108 90 215 133 293" id="ap"/><use transform="matrix(0.022222222222222223,0,0,0.022222222222222223,0,0)" xlink:href="#ap" id="B"/><path fill="#333" d="M974-710l-54 24c-22-43-55-100-83-138l53-22c26 36 65 99 84 136zm-112 41l-55 24c-20-40-54-101-81-139l53-22c25 35 62 97 83 137zM291-495c-97 10-133 12-214 25l-8-87c91 3 136-3 238-11 14-71 26-148 25-215l94 9c-15 67-21 113-38 199 156-16 272-22 272 162 0 118-18 273-57 357-47 102-155 87-262 68l-13-85c90 20 165 53 208-29 34-65 47-195 47-302-2-137-97-105-211-99-36 142-104 365-208 531L83-5c101-135 174-358 208-490zm402-132l73-34c62 80 148 260 181 352l-77 38c-30-102-108-275-177-356" id="aq"/><path fill="#333" d="M467-242c-9-169-24-331-27-506h120c-1 177-18 337-27 506h-66zM500 5c-44 0-80-30-80-79 0-47 36-78 80-78s80 31 80 78c0 49-36 79-80 79" id="ar"/><g id="C"><use transform="matrix(0.022222222222222223,0,0,0.022222222222222223,0,0)" xlink:href="#aq"/><use transform="matrix(0.022222222222222223,0,0,0.022222222222222223,22.22222222222222,0)" xlink:href="#ar"/></g></defs></g></svg>