<svg xmlns="http://www.w3.org/2000/svg" xmlns:xlink="http://www.w3.org/1999/xlink" xmlns:lucid="lucid" width="729" height="692"><g transform="translate(333 -759)" lucid:page-tab-id="0_0"><path d="M-500 0h1500v2000H-500z" fill="#fff"/><path d="M-16.68 1106a6 6 0 0 1 6-6h188a6 6 0 0 1 6 6v88a6 6 0 0 1-6 6h-188a6 6 0 0 1-6-6zM-16.68 1100h200m0 100h-200" fill="#fff"/><path d="M-16.68 1100H0m16.66 0H50m16.66 0H100m16.66 0H150m16.66 0h16.66m0 100h-16.66m-16.67 0h-33.34m-16.67 0H66.65M50 1200H16.65M0 1200H-16.7" stroke="#635dff" stroke-width="3" fill="none"/><use xlink:href="#a" transform="matrix(1,0,0,1,3.3252237187106175,1100) translate(7.955555555555563 59.33333333333333)"/><path d="M0 1150c0 27.6-35.82 50-80 50s-80-22.4-80-50 35.82-50 80-50 80 22.4 80 50z" fill="#fff"/><path d="M-15.5 1179.57l-.4.36-3.16 2.46-3.6 2.47-4.13 2.47-4.65 2.4-5.24 2.3-5.8 2.14-3.47 1.03m-16.84 3.63l-.34.06-7.75.78-8.02.32H-80l-8.07-.25-7.8-.73-1.32-.2m-16.83-3.6l-2.66-.78-5.88-2.1-5.3-2.28-4.75-2.4-4.2-2.46-3.66-2.48-3.2-2.46-.78-.7m-11.08-13.1l-1.1-2.13-.92-2.07-.75-2.04-.6-2-.46-2-.32-2-.2-1.97-.08-2v-.25l.06-2 .2-1.97.3-1.98.44-2 .58-2 .73-2.04.9-2.06 1.07-2.1.18-.3m11.06-13.1l.4-.37 3.16-2.46 3.6-2.47 4.13-2.47 4.65-2.4 5.24-2.3 5.8-2.14 3.47-1.03m16.84-3.63l.34-.06 7.75-.78 8.02-.32H-80l8.07.25 7.8.73 1.32.2m16.83 3.6l2.66.78 5.88 2.1 5.3 2.28 4.75 2.4 4.2 2.46 3.66 2.48 3.2 2.46.78.7m11.08 13.1l1.1 2.13.92 2.07.75 2.04.6 2 .46 2 .32 2 .2 1.97.08 2v.25l-.06 2-.2 1.97-.3 1.98-.44 2-.58 2-.73 2.04-.9 2.06-1.07 2.1-.18.3" stroke="#635dff" stroke-width="3" fill="none"/><use xlink:href="#b" transform="matrix(1,0,0,1,-155,1105) translate(40.833333333333336 53.90277777777777)"/><path d="M-33.88 1126a6 6 0 0 1 6-6h188a6 6 0 0 1 6 6v48a6 6 0 0 1-6 6h-188a6 6 0 0 1-6-6z" fill="#fff"/><path d="M-33.88 1120h200m0 60h-200" stroke="#5e5e5e" stroke-width="3" fill="#fff"/><use xlink:href="#a" transform="matrix(1,0,0,1,-13.880309572531502,1120.0000000000002) translate(7.955555555555563 39.33333333333333)"/><path d="M-20 1150c0 16.57-22.4 30-50 30s-50-13.43-50-30 22.4-30 50-30 50 13.43 50 30z" stroke="#5e5e5e" stroke-width="3" fill="#fff"/><use xlink:href="#c" transform="matrix(1,0,0,1,-115,1125) translate(15.205 35.15277777777777)"/><path d="M-16.68 786a6 6 0 0 1 6-6h188a6 6 0 0 1 6 6v88a6 6 0 0 1-6 6h-188a6 6 0 0 1-6-6zM-16.68 780h200m0 100h-200" fill="#fff"/><path d="M-16.68 780H0m16.66 0H50m16.66 0H100m16.66 0H150m16.66 0h16.66m0 100h-16.66M150 880h-33.34M100 880H66.65M50 880H16.65M0 880H-16.7" stroke="#635dff" stroke-width="3" fill="none"/><use xlink:href="#a" transform="matrix(1,0,0,1,3.3252237187106175,780) translate(7.955555555555563 59.33333333333333)"/><path d="M0 830c0 27.6-35.82 50-80 50s-80-22.4-80-50 35.82-50 80-50 80 22.4 80 50z" fill="#fff"/><path d="M-15.5 859.57l-.4.36-3.16 2.46-3.6 2.47-4.13 2.47-4.65 2.4-5.24 2.3-5.8 2.14-3.47 1.03m-16.84 3.63l-.34.06-7.75.78-8.02.32H-80l-8.07-.25-7.8-.73-1.32-.2m-16.83-3.6l-2.66-.78-5.88-2.1-5.3-2.28-4.75-2.4-4.2-2.46-3.66-2.48-3.2-2.47-.78-.68m-11.08-13.1v-.02l-1.1-2.12-.92-2.07-.75-2.04-.6-2-.46-2-.32-2-.2-1.97-.08-2V830l.06-2 .2-1.97.3-1.98.44-2 .58-2 .73-2.04.9-2.05 1.07-2.12.18-.3m11.06-13.1l.4-.36 3.16-2.46 3.6-2.47 4.13-2.47 4.65-2.4 5.24-2.3 5.8-2.14 3.47-1.03m16.84-3.63l.34-.06 7.75-.78 8.02-.32H-80l8.07.25 7.8.73 1.32.2m16.83 3.6l2.66.78 5.88 2.1 5.3 2.28 4.75 2.4 4.2 2.46 3.66 2.48 3.2 2.47.78.68m11.08 13.1v.02l1.1 2.12.92 2.07.75 2.04.6 2 .46 2 .32 2 .2 1.97.08 2v.25l-.06 2-.2 1.97-.3 1.98-.44 2-.58 2-.73 2.04-.9 2.05-1.07 2.12-.18.3" stroke="#635dff" stroke-width="3" fill="none"/><use xlink:href="#b" transform="matrix(1,0,0,1,-155,785) translate(40.833333333333336 53.90277777777777)"/><path d="M34 910a6 6 0 0 1 6 6v112a6 6 0 0 0 6 6h8a2.3 2.3 0 0 1 1.54 4l-31.08 28a6.67 6.67 0 0 1-8.92 0l-31.08-28a2.3 2.3 0 0 1 1.54-4h8a6 6 0 0 0 6-6V916a6 6 0 0 1 6-6z" stroke="#5e5e5e" stroke-width="3" fill="#fff"/><path d="M80 916a6 6 0 0 1 6-6h288a6 6 0 0 1 6 6v148a6 6 0 0 1-6 6H86a6 6 0 0 1-6-6z" stroke="#000" stroke-opacity="0" stroke-width="3" fill="#fff" fill-opacity="0"/><use xlink:href="#d" transform="matrix(1,0,0,1,85,915) translate(26.455555555555563 35.15277777777777)"/><use xlink:href="#e" transform="matrix(1,0,0,1,85,915) translate(89.44444444444444 68.04166666666666)"/><use xlink:href="#f" transform="matrix(1,0,0,1,85,915) translate(111.66666666666666 68.04166666666666)"/><use xlink:href="#g" transform="matrix(1,0,0,1,85,915) translate(133.88888888888889 68.04166666666666)"/><use xlink:href="#h" transform="matrix(1,0,0,1,85,915) translate(156.1111111111111 68.04166666666666)"/><use xlink:href="#i" transform="matrix(1,0,0,1,85,915) translate(178.33333333333331 68.04166666666666)"/><use xlink:href="#j" transform="matrix(1,0,0,1,85,915) translate(30.82222222222221 100.93055555555554)"/><use xlink:href="#e" transform="matrix(1,0,0,1,85,915) translate(35.73333333333332 133.81944444444443)"/><use xlink:href="#k" transform="matrix(1,0,0,1,85,915) translate(57.95555555555554 133.81944444444443)"/><use xlink:href="#l" transform="matrix(1,0,0,1,85,915) translate(80.17777777777776 133.81944444444443)"/><use xlink:href="#m" transform="matrix(1,0,0,1,85,915) translate(102.39999999999998 133.81944444444443)"/><use xlink:href="#n" transform="matrix(1,0,0,1,85,915) translate(124.6222222222222 133.81944444444443)"/><use xlink:href="#o" transform="matrix(1,0,0,1,85,915) translate(146.84444444444443 133.81944444444443)"/><use xlink:href="#p" transform="matrix(1,0,0,1,85,915) translate(169.06666666666666 133.81944444444443)"/><use xlink:href="#q" transform="matrix(1,0,0,1,85,915) translate(191.2888888888889 133.81944444444443)"/><use xlink:href="#r" transform="matrix(1,0,0,1,85,915) translate(213.51111111111112 133.81944444444443)"/><path d="M-303.63 1296.53a6 6 0 0 1 6-6h84.9a6 6 0 0 1 6 6v28a6 6 0 0 1-6 6h-84.9a6 6 0 0 1-6-6zM-303.63 1290.53h96.9m0 40h-96.9" fill="#fff"/><path d="M-303.63 1290.53h16.15m16.15 0h32.3m16.16 0h16.15m0 40h-16.15m-16.15 0h-32.3m-16.16 0h-16.15" stroke="#635dff" stroke-width="3" fill="none"/><path d="M-173.88 1310.53c0 11.04-10.85 20-24.23 20-13.4 0-24.24-8.96-24.24-20 0-11.05 10.85-20 24.23-20 13.37 0 24.22 8.95 24.22 20z" fill="#fff"/><path d="M-186.87 1328.1l-1.9.88-5.63 1.32-3.7.23-6-.62-5.3-1.68m-9.07-7l-1.38-1.85-1.56-3.35-.8-3.38-.14-2.1.36-3.44 1.08-3.37 1.9-3.33.5-.58m9.15-6.87l1.9-.88 5.63-1.3 3.7-.24 6 .6 5.3 1.7m9.07 7.02l1.38 1.84 1.56 3.33.8 3.4.12 2.1-.36 3.43-1.08 3.37-1.9 3.32-.5.58" stroke="#635dff" stroke-width="3" fill="none"/><path d="M-303.63 1376.53a6 6 0 0 1 6-6h84.9a6 6 0 0 1 6 6v28a6 6 0 0 1-6 6h-84.9a6 6 0 0 1-6-6z" fill="#fff"/><path d="M-303.63 1370.53h96.9m0 40h-96.9M-173.88 1390.53c0 11.04-10.85 20-24.23 20-13.4 0-24.24-8.96-24.24-20 0-11.05 10.85-20 24.23-20 13.37 0 24.22 8.95 24.22 20z" stroke="#333" stroke-width="3" fill="#fff"/><path d="M-183.63 1286.53a6 6 0 0 1 6-6h188a6 6 0 0 1 6 6v48a6 6 0 0 1-6 6h-188a6 6 0 0 1-6-6z" stroke="#000" stroke-opacity="0" stroke-width="3" fill="#fff" fill-opacity="0"/><g><use xlink:href="#s" transform="matrix(1,0,0,1,-178.63252539406744,1285.5277777777778) translate(17.222222222222214 35.15277777777777)"/><use xlink:href="#t" transform="matrix(1,0,0,1,-178.63252539406744,1285.5277777777778) translate(39.444444444444436 35.15277777777777)"/><use xlink:href="#u" transform="matrix(1,0,0,1,-178.63252539406744,1285.5277777777778) translate(61.66666666666666 35.15277777777777)"/><use xlink:href="#v" transform="matrix(1,0,0,1,-178.63252539406744,1285.5277777777778) translate(83.88888888888887 35.15277777777777)"/><use xlink:href="#w" transform="matrix(1,0,0,1,-178.63252539406744,1285.5277777777778) translate(106.1111111111111 35.15277777777777)"/><use xlink:href="#x" transform="matrix(1,0,0,1,-178.63252539406744,1285.5277777777778) translate(128.33333333333331 35.15277777777777)"/><use xlink:href="#y" transform="matrix(1,0,0,1,-178.63252539406744,1285.5277777777778) translate(150.55555555555554 35.15277777777777)"/></g><path d="M-173.88 1367.58a6 6 0 0 1 6-6h208a6 6 0 0 1 6 6v45.9a6 6 0 0 1-6 6h-208a6 6 0 0 1-6-6z" stroke="#000" stroke-opacity="0" stroke-width="3" fill="#fff" fill-opacity="0"/><g><use xlink:href="#z" transform="matrix(1,0,0,1,-168.88030957253142,1366.5833333333335) translate(4.999999999999986 34.77777777777777)"/><use xlink:href="#A" transform="matrix(1,0,0,1,-168.88030957253142,1366.5833333333335) translate(27.222222222222207 34.77777777777777)"/><use xlink:href="#B" transform="matrix(1,0,0,1,-168.88030957253142,1366.5833333333335) translate(49.44444444444443 34.77777777777777)"/><use xlink:href="#C" transform="matrix(1,0,0,1,-168.88030957253142,1366.5833333333335) translate(71.66666666666664 34.77777777777777)"/><use xlink:href="#D" transform="matrix(1,0,0,1,-168.88030957253142,1366.5833333333335) translate(93.88888888888887 34.77777777777777)"/><use xlink:href="#v" transform="matrix(1,0,0,1,-168.88030957253142,1366.5833333333335) translate(116.1111111111111 34.77777777777777)"/><use xlink:href="#w" transform="matrix(1,0,0,1,-168.88030957253142,1366.5833333333335) translate(138.33333333333331 34.77777777777777)"/><use xlink:href="#x" transform="matrix(1,0,0,1,-168.88030957253142,1366.5833333333335) translate(160.55555555555554 34.77777777777777)"/><use xlink:href="#y" transform="matrix(1,0,0,1,-168.88030957253142,1366.5833333333335) translate(182.77777777777777 34.77777777777777)"/></g><defs><path fill="#333" d="M377 13C195 13 58-128 58-366c0-237 139-381 325-381 89 0 159 44 201 91l-50 60c-38-41-87-70-150-70-139 0-231 114-231 297 0 185 88 301 228 301 70 0 123-31 170-82l51 58C544-25 472 13 377 13" id="E"/><path fill="#333" d="M303 13C170 13 51-91 51-271c0-181 119-286 252-286s252 105 252 286C555-91 436 13 303 13zm0-76c94 0 158-83 158-208s-64-210-158-210-157 85-157 210S209-63 303-63" id="F"/><path fill="#333" d="M92 0v-543h75l8 78h3c52-51 108-92 182-92 114 0 166 74 166 213V0h-91v-332c0-102-31-145-103-145-56 0-94 28-149 83V0H92" id="G"/><path fill="#333" d="M263 13c-116 0-155-72-155-181v-301H27v-69l85-5 11-152h76v152h147v74H199v303c0 67 21 105 84 105 19 0 44-7 62-14l18 68c-31 10-67 20-100 20" id="H"/><path fill="#333" d="M92 0v-543h75l8 99h3c50-86 117-137 212-101l-17 80c-18-7-31-9-53-9-45 0-101 32-137 125V0H92" id="I"/><path fill="#333" d="M217 13C126 13 58-43 58-141c0-118 103-177 334-203 0-70-23-137-112-137-63 0-120 29-163 58l-36-63c50-32 127-71 214-71 132 0 188 89 188 223V0h-75l-8-65h-3c-52 43-113 78-180 78zm26-73c53 0 96-25 149-72v-152c-183 22-245 67-245 137 0 62 42 87 96 87" id="J"/><path fill="#333" d="M209 0L13-543h95c51 155 104 312 153 469h4c48-158 101-314 153-469h90L315 0H209" id="K"/><path fill="#333" d="M92 0v-543h91V0H92zm46-655c-36 0-63-25-63-59 0-37 27-59 63-59s63 22 63 59c0 34-27 59-63 59" id="L"/><g id="a"><use transform="matrix(0.022222222222222223,0,0,0.022222222222222223,0,0)" xlink:href="#E"/><use transform="matrix(0.022222222222222223,0,0,0.022222222222222223,14.177777777777779,0)" xlink:href="#F"/><use transform="matrix(0.022222222222222223,0,0,0.022222222222222223,27.644444444444446,0)" xlink:href="#G"/><use transform="matrix(0.022222222222222223,0,0,0.022222222222222223,41.22222222222222,0)" xlink:href="#H"/><use transform="matrix(0.022222222222222223,0,0,0.022222222222222223,49.6,0)" xlink:href="#I"/><use transform="matrix(0.022222222222222223,0,0,0.022222222222222223,58.22222222222222,0)" xlink:href="#J"/><use transform="matrix(0.022222222222222223,0,0,0.022222222222222223,70.75555555555556,0)" xlink:href="#K"/><use transform="matrix(0.022222222222222223,0,0,0.022222222222222223,82.33333333333334,0)" xlink:href="#J"/><use transform="matrix(0.022222222222222223,0,0,0.022222222222222223,94.86666666666667,0)" xlink:href="#I"/><use transform="matrix(0.022222222222222223,0,0,0.022222222222222223,103.4888888888889,0)" xlink:href="#L"/><use transform="matrix(0.022222222222222223,0,0,0.022222222222222223,109.60000000000001,0)" xlink:href="#J"/><use transform="matrix(0.022222222222222223,0,0,0.022222222222222223,122.13333333333334,0)" xlink:href="#G"/><use transform="matrix(0.022222222222222223,0,0,0.022222222222222223,135.7111111111111,0)" xlink:href="#H"/></g><path fill="#333" d="M371 13C187 13 58-134 58-369s129-378 313-378 313 143 313 378S555 13 371 13zm0-81c131 0 218-118 218-301 0-184-87-297-218-297-132 0-218 113-218 297 0 183 86 301 218 301" id="M"/><path fill="#333" d="M567-281C567-18 341 97 176-56h-3l-8 56H92v-796h91c0 106 2 214-3 316 49-43 110-77 170-77 141 0 217 110 217 276zM183-120C317-1 471-73 472-279c0-120-40-201-143-201-46 0-94 26-146 75v285" id="N"/><path fill="#333" d="M36 243c-33 0-61-7-80-14l18-70c14 5 32 10 51 10 55 0 68-41 68-107v-605h91V62c0 111-41 181-148 181zm103-898c-36 0-63-25-63-59 0-37 27-59 63-59 35 0 63 22 63 59 0 34-28 59-63 59" id="O"/><path fill="#333" d="M311 13C167 13 51-92 51-271c0-176 119-286 245-286 154-3 234 132 212 307H142c6 116 77 190 180 190 53 0 96-16 136-43l33 60c-48 31-106 56-180 56zM141-315h291c0-110-50-169-135-169-77 0-145 62-156 169" id="P"/><path fill="#333" d="M306 13C162 13 51-91 51-271c0-181 123-286 262-286 71 0 120 30 159 64l-47 61c-32-29-65-49-109-49-98 0-170 85-170 210S214-63 314-63c50 0 94-23 128-54l39 61c-48 44-110 69-175 69" id="Q"/><g id="b"><use transform="matrix(0.022222222222222223,0,0,0.022222222222222223,0,0)" xlink:href="#M"/><use transform="matrix(0.022222222222222223,0,0,0.022222222222222223,16.48888888888889,0)" xlink:href="#N"/><use transform="matrix(0.022222222222222223,0,0,0.022222222222222223,30.222222222222225,0)" xlink:href="#O"/><use transform="matrix(0.022222222222222223,0,0,0.022222222222222223,36.333333333333336,0)" xlink:href="#P"/><use transform="matrix(0.022222222222222223,0,0,0.022222222222222223,48.644444444444446,0)" xlink:href="#Q"/><use transform="matrix(0.022222222222222223,0,0,0.022222222222222223,59.955555555555556,0)" xlink:href="#H"/></g><path fill="#333" d="M234 13C157 13 83-19 31-62l45-60c47 38 96 64 161 64 72 0 107-38 107-85 0-55-64-80-124-103-76-28-162-65-162-157 0-86 69-154 187-154 67 0 126 28 169 61l-44 59c-38-28-76-48-125-48-68 0-99 36-99 78 0 52 59 71 120 94 79 30 166 62 166 165 0 88-70 161-198 161" id="R"/><path fill="#333" d="M275 250c-133 0-225-52-225-146 0-46 30-90 81-123v-4c-29-17-50-46-50-89 0-45 33-81 61-101v-4c-36-29-71-81-71-146-2-145 144-228 280-180h189v70H429c26 25 44 65 44 112 4 144-147 228-279 170-52 42-57 131 60 124h106c126 0 189 40 189 129 0 101-106 188-274 188zm0-484c62 0 115-50 115-129s-51-127-115-127-116 47-116 127c0 79 53 129 116 129zm13 422c104 0 173-55 173-112 0-103-183-49-275-76-106 75-57 194 102 188" id="S"/><g id="c"><use transform="matrix(0.022222222222222223,0,0,0.022222222222222223,0,0)" xlink:href="#R"/><use transform="matrix(0.022222222222222223,0,0,0.022222222222222223,10.4,0)" xlink:href="#H"/><use transform="matrix(0.022222222222222223,0,0,0.022222222222222223,18.77777777777778,0)" xlink:href="#I"/><use transform="matrix(0.022222222222222223,0,0,0.022222222222222223,27.400000000000002,0)" xlink:href="#L"/><use transform="matrix(0.022222222222222223,0,0,0.022222222222222223,33.51111111111111,0)" xlink:href="#G"/><use transform="matrix(0.022222222222222223,0,0,0.022222222222222223,47.08888888888889,0)" xlink:href="#S"/></g><path fill="#333" d="M517-146L38-334v-73l479-188v79c-129 47-258 95-386 143v4c128 48 257 96 386 143v80" id="T"/><path fill="#333" d="M38-146v-80c129-47 258-95 386-143v-4c-128-48-257-96-386-143v-79l479 188v73" id="U"/><g id="d"><use transform="matrix(0.022222222222222223,0,0,0.022222222222222223,0,0)" xlink:href="#E"/><use transform="matrix(0.022222222222222223,0,0,0.022222222222222223,14.177777777777779,0)" xlink:href="#F"/><use transform="matrix(0.022222222222222223,0,0,0.022222222222222223,27.644444444444446,0)" xlink:href="#G"/><use transform="matrix(0.022222222222222223,0,0,0.022222222222222223,41.22222222222222,0)" xlink:href="#H"/><use transform="matrix(0.022222222222222223,0,0,0.022222222222222223,49.6,0)" xlink:href="#I"/><use transform="matrix(0.022222222222222223,0,0,0.022222222222222223,58.22222222222222,0)" xlink:href="#J"/><use transform="matrix(0.022222222222222223,0,0,0.022222222222222223,70.75555555555556,0)" xlink:href="#K"/><use transform="matrix(0.022222222222222223,0,0,0.022222222222222223,82.33333333333334,0)" xlink:href="#J"/><use transform="matrix(0.022222222222222223,0,0,0.022222222222222223,94.86666666666667,0)" xlink:href="#I"/><use transform="matrix(0.022222222222222223,0,0,0.022222222222222223,103.4888888888889,0)" xlink:href="#L"/><use transform="matrix(0.022222222222222223,0,0,0.022222222222222223,109.60000000000001,0)" xlink:href="#J"/><use transform="matrix(0.022222222222222223,0,0,0.022222222222222223,122.13333333333334,0)" xlink:href="#G"/><use transform="matrix(0.022222222222222223,0,0,0.022222222222222223,135.7111111111111,0)" xlink:href="#H"/><use transform="matrix(0.022222222222222223,0,0,0.022222222222222223,144.08888888888887,0)" xlink:href="#T"/><use transform="matrix(0.022222222222222223,0,0,0.022222222222222223,156.42222222222222,0)" xlink:href="#M"/><use transform="matrix(0.022222222222222223,0,0,0.022222222222222223,172.9111111111111,0)" xlink:href="#N"/><use transform="matrix(0.022222222222222223,0,0,0.022222222222222223,186.64444444444445,0)" xlink:href="#O"/><use transform="matrix(0.022222222222222223,0,0,0.022222222222222223,192.75555555555556,0)" xlink:href="#P"/><use transform="matrix(0.022222222222222223,0,0,0.022222222222222223,205.06666666666666,0)" xlink:href="#Q"/><use transform="matrix(0.022222222222222223,0,0,0.022222222222222223,216.37777777777774,0)" xlink:href="#H"/><use transform="matrix(0.022222222222222223,0,0,0.022222222222222223,224.75555555555553,0)" xlink:href="#U"/></g><path fill="#333" d="M271-140c44 0 99-66 150-233 25-82 44-176 55-267-190 24-306 187-306 320 0 125 58 180 101 180zm215 91c184-13 336-101 336-305 0-150-95-273-263-287-13 92-32 192-59 285C439-153 360-48 268-48 180-48 91-150 91-313c0-215 192-403 434-403 232 0 380 164 380 364C905-144 768-5 532 26" id="V"/><use transform="matrix(0.022222222222222223,0,0,0.022222222222222223,0,0)" xlink:href="#V" id="e"/><path fill="#333" d="M77-522c154-32 319-127 532-127 164 0 295 95 295 261 0 238-236 353-542 370l-35-83c259-7 489-85 489-288 0-104-75-185-209-185-163 0-415 109-493 140" id="W"/><use transform="matrix(0.022222222222222223,0,0,0.022222222222222223,0,0)" xlink:href="#W" id="f"/><path fill="#333" d="M342-616c7-69 15-106 12-172l90 5c-15 64-15 95-26 170 75 0 142-4 200-12l-2 75c-64 6-127 10-208 10-8 58-15 120-22 177 76 0 149-2 225-12l-2 76c-78 8-149 9-230 9-23 148 6 251 161 252 150 0 246-64 246-167 0-67-36-141-109-202l89-18c68 75 102 144 102 229C868-49 735 41 540 41c-135 0-244-59-244-221 0-27 3-67 8-114-74-6-146-17-206-36l4-76c65 23 139 35 209 40 7-58 15-120 22-178-71-6-149-18-211-34l4-74c62 20 142 32 216 36" id="X"/><use transform="matrix(0.022222222222222223,0,0,0.022222222222222223,0,0)" xlink:href="#X" id="g"/><path fill="#333" d="M225-227c-29-175 13-400 28-562l88 3c-21 73-40 206-46 275 39-102 143-225 268-225 132 0 227 132 227 340C790-121 617 0 371 45l-47-72c215-33 383-119 383-368 0-156-52-268-157-268-123 0-237 179-249 309-5 38-5 72 2 121" id="Y"/><use transform="matrix(0.022222222222222223,0,0,0.022222222222222223,0,0)" xlink:href="#Y" id="h"/><path fill="#333" d="M732-519c23 33 61 95 82 139l-51 24c-23-48-52-100-82-141zm109-42c24 33 63 94 87 138l-52 24c-24-48-53-97-85-139zM83-658c160-7 562-55 789-62v80c-57 0-143 1-194 16-141 45-226 196-226 313 0 193 180 254 341 260l-29 84C581 25 372-73 372-294c0-154 93-280 184-334-87 10-357 36-464 58" id="Z"/><use transform="matrix(0.022222222222222223,0,0,0.022222222222222223,0,0)" xlink:href="#Z" id="i"/><g id="j"><use transform="matrix(0.022222222222222223,0,0,0.022222222222222223,0,0)" xlink:href="#E"/><use transform="matrix(0.022222222222222223,0,0,0.022222222222222223,14.177777777777779,0)" xlink:href="#F"/><use transform="matrix(0.022222222222222223,0,0,0.022222222222222223,27.644444444444446,0)" xlink:href="#G"/><use transform="matrix(0.022222222222222223,0,0,0.022222222222222223,41.22222222222222,0)" xlink:href="#H"/><use transform="matrix(0.022222222222222223,0,0,0.022222222222222223,49.6,0)" xlink:href="#I"/><use transform="matrix(0.022222222222222223,0,0,0.022222222222222223,58.22222222222222,0)" xlink:href="#J"/><use transform="matrix(0.022222222222222223,0,0,0.022222222222222223,70.75555555555556,0)" xlink:href="#K"/><use transform="matrix(0.022222222222222223,0,0,0.022222222222222223,82.33333333333334,0)" xlink:href="#J"/><use transform="matrix(0.022222222222222223,0,0,0.022222222222222223,94.86666666666667,0)" xlink:href="#I"/><use transform="matrix(0.022222222222222223,0,0,0.022222222222222223,103.4888888888889,0)" xlink:href="#L"/><use transform="matrix(0.022222222222222223,0,0,0.022222222222222223,109.60000000000001,0)" xlink:href="#J"/><use transform="matrix(0.022222222222222223,0,0,0.022222222222222223,122.13333333333334,0)" xlink:href="#G"/><use transform="matrix(0.022222222222222223,0,0,0.022222222222222223,135.7111111111111,0)" xlink:href="#H"/><use transform="matrix(0.022222222222222223,0,0,0.022222222222222223,144.08888888888887,0)" xlink:href="#T"/><use transform="matrix(0.022222222222222223,0,0,0.022222222222222223,156.42222222222222,0)" xlink:href="#R"/><use transform="matrix(0.022222222222222223,0,0,0.022222222222222223,166.82222222222222,0)" xlink:href="#H"/><use transform="matrix(0.022222222222222223,0,0,0.022222222222222223,175.2,0)" xlink:href="#I"/><use transform="matrix(0.022222222222222223,0,0,0.022222222222222223,183.82222222222222,0)" xlink:href="#L"/><use transform="matrix(0.022222222222222223,0,0,0.022222222222222223,189.93333333333334,0)" xlink:href="#G"/><use transform="matrix(0.022222222222222223,0,0,0.022222222222222223,203.51111111111112,0)" xlink:href="#S"/><use transform="matrix(0.022222222222222223,0,0,0.022222222222222223,216.02222222222224,0)" xlink:href="#U"/></g><path fill="#333" d="M384-738H165v77h219v-77zM165-527h219v-83H165v83zm289 55H165V77H92v-871h362v322zm159-53h227v-85H613v85zm227-213H613v77h227v-77zm73-56v782c-1 94-59 86-166 88-2-18-11-47-20-66-4 6-8 12-10 17-98-26-171-78-217-150-29 56-92 112-225 153-9-14-29-37-44-50 141-39 196-96 216-148H240v-57h218v-78H257v-56h107c-10-26-27-58-45-81l58-19c24 31 47 72 54 100h130c17-31 38-72 48-102l67 22c-17 27-35 56-51 80h118v56H524v78h236v57H540C582-97 657-48 759-28c-9 8-20 21-29 33 42 2 81 2 93 1 13 0 17-5 17-19v-458H542v-323h371" id="aa"/><use transform="matrix(0.022222222222222223,0,0,0.022222222222222223,0,0)" xlink:href="#aa" id="k"/><path fill="#333" d="M438-817l65 27c-29 46-63 96-89 129l-50-24c24-35 58-93 74-132zM207-685l-59 26c-9-35-35-90-62-131l56-23c28 40 55 93 65 128zm438 101c15 115 47 225 86 319 43-89 70-195 88-319H645zM372-245H232c-14 28-29 55-42 81 40 16 80 34 119 53 30-36 50-80 63-134zm584-339h-60c-25 162-63 294-124 401C822-97 885-29 965 13c-17 14-41 43-51 63-77-45-138-109-187-189C668-35 593 29 495 79c-6-13-19-35-32-52l-23 24c-31-25-71-52-117-79C265 20 186 53 79 76c-5-20-20-47-34-61 92-16 162-41 213-78-32-16-65-32-98-46l-16 28-64-23c22-38 49-89 76-141H43v-62h144c15-30 29-59 41-86l26 6v-138c-50 59-114 114-175 147-9-17-27-43-41-56 71-32 147-94 196-159H49v-61h205v-183h69v183h203v61H323v5c43 25 151 93 178 113l-41 53c-26-24-89-72-137-108v149h-43l17 4c-11 22-22 46-34 70h267v62h-87c-14 67-37 122-71 167 44 24 84 50 115 73 85-47 151-107 200-182-38-81-67-174-90-276-21 47-46 89-73 125-11-14-43-39-60-51 84-105 136-272 163-448l76 11c-10 59-23 117-37 172h290v70" id="ab"/><use transform="matrix(0.022222222222222223,0,0,0.022222222222222223,0,0)" xlink:href="#ab" id="l"/><path fill="#333" d="M878-441c-104 35-177 66-289 117 1 57 2 141 3 189h-77c3-38 4-102 4-154-92 50-156 101-156 166 0 78 77 89 179 89 77 0 183-9 270-24l-2 81C627 35 282 94 283-112c0-117 118-191 233-251-10-41-46-61-89-61-128 6-195 93-261 177l-68-51c126-122 191-224 228-302-66 0-130-1-204-6v-75c82 8 153 12 232 9 14-44 23-89 25-123l82 7c-7 28-16 69-30 114 101-5 209-14 303-30l-1 74c-98 15-220 24-328 28-22 51-53 106-89 152 87-54 243-58 268 53 102-48 174-74 262-119" id="ac"/><use transform="matrix(0.022222222222222223,0,0,0.022222222222222223,0,0)" xlink:href="#ac" id="m"/><path fill="#333" d="M251-664H144v396h107v-396zm67-69v534H144v93H78v-627h240zm637 380v71H689v262c0 47-12 67-42 80-31 12-81 14-164 13-4-20-16-51-28-71 63 2 121 1 136 1 18 0 25-6 25-23v-262H361v-71h255v-350c-76 9-155 16-228 21-2-17-12-44-20-61 174-14 381-40 497-74l51 59c-63 18-143 33-227 45v360h266zM400-622l62-20c38 73 70 169 80 233l-66 22c-9-64-40-162-76-235zm407 238l-59-21c32-65 73-175 94-252l72 21c-32 84-73 188-107 252" id="ad"/><use transform="matrix(0.022222222222222223,0,0,0.022222222222222223,0,0)" xlink:href="#ad" id="n"/><path fill="#333" d="M871-640l-52 20c-19-45-45-105-67-143l50-17c20 37 52 99 69 140zM93-659c110-3 292-34 371-60l24 72c-13 5-38 11-52 18-63 47-213 234-213 417 0 136 86 190 182 190 206 0 323-239 254-604-8-23-16-47-24-72l77-24c25 120 84 282 211 409l-59 62c-45-55-85-115-122-185 21 250-83 497-340 497-159 0-257-103-257-262 0-170 97-329 178-413-78 13-151 25-218 39zm762-141l49-19c22 37 52 98 71 140l-52 19c-19-45-45-103-68-140" id="ae"/><use transform="matrix(0.022222222222222223,0,0,0.022222222222222223,0,0)" xlink:href="#ae" id="o"/><path fill="#333" d="M814-336h76V74h-76V14H190v62h-74v-412h74v277h267v-341H154v-342h74v270h229v-359h76v359h240v-270h77v342H533v341h281v-277" id="af"/><use transform="matrix(0.022222222222222223,0,0,0.022222222222222223,0,0)" xlink:href="#af" id="p"/><path fill="#333" d="M480-234c58 0 96-47 87-141-35-101-190-70-188 43 0 62 46 98 101 98zm63-428c0-52-3-88-8-127h91c-4 45-6 72-6 126 117 0 257 1 305 1l-1 75c-54-3-163-5-304-5 0 56 1 117 2 162 21 34 32 78 32 127 0 134-65 283-295 352l-69-67c130-30 222-84 263-172-106 64-250-1-249-141 0-120 119-204 241-162 0-29 0-64-1-98-150 1-318 8-442 17l-2-78c110-2 296-8 443-10" id="ag"/><use transform="matrix(0.022222222222222223,0,0,0.022222222222222223,0,0)" xlink:href="#ag" id="q"/><path fill="#333" d="M423-482c134-82 232-116 325-186l43 73c-109 65-238 115-377 205-92 60-147 125-147 200 0 82 78 133 234 133 108 0 240-14 317-34v90c-75 13-189 24-313 24-186 0-321-56-321-204 0-102 65-183 171-257-46-81-98-197-144-305l79-32c40 108 90 215 133 293" id="ah"/><path fill="#333" d="M139 13c-36 0-66-28-66-69s30-71 66-71 66 30 66 71-30 69-66 69" id="ai"/><g id="r"><use transform="matrix(0.022222222222222223,0,0,0.022222222222222223,0,0)" xlink:href="#ah"/><use transform="matrix(0.022222222222222223,0,0,0.022222222222222223,22.22222222222222,0)" xlink:href="#ai"/><use transform="matrix(0.022222222222222223,0,0,0.022222222222222223,28.400000000000002,0)" xlink:href="#ai"/><use transform="matrix(0.022222222222222223,0,0,0.022222222222222223,34.577777777777776,0)" xlink:href="#ai"/></g><path fill="#333" d="M207-332v100h181v-100H207zm181-306H207v88h181v-88zM207-490v98h181v-98H207zm323 258v67H42v-67h97v-406H55v-67h84v-121h68v121h181v-121h69v121h73v67h-73v406h73zm-350 88l71 19C215-48 158 28 103 77 89 65 61 44 43 34 98-11 150-78 180-144zm142 31l58-31C420-99 466-37 485 4l-60 35C407-1 362-66 322-113zm325-214h206v-166H649c0 57 0 108-2 166zm206-392H649v159h204v-159zm72-68v768c-5 105-66 86-187 92-3-21-13-53-23-72 53 1 103 1 117 0 15 0 21-5 21-21v-240H642c-10 119-35 246-95 342-12-14-42-37-59-44 83-132 91-321 91-464v-361h346" id="aj"/><use transform="matrix(0.022222222222222223,0,0,0.022222222222222223,0,0)" xlink:href="#aj" id="s"/><path fill="#333" d="M257-834l70 27c-58 85-154 179-242 238-8-17-26-45-38-60 78-51 167-135 210-205zm17 219l65 26c-22 42-50 83-80 122V76h-72v-458c-37 41-76 79-115 110-7-17-27-55-40-73 89-65 185-167 242-270zm143 411l60-34c46 52 98 124 120 172l-63 37c-21-48-71-123-117-175zm542-240H818v110h134v68H818v252c0 45-9 65-40 77s-83 12-160 12c-3-21-14-50-24-71 60 2 115 2 130 1 17-1 21-5 21-19v-252H340v-68h405v-110H329v-69h277v-127H387v-68h219v-124h73v124h228v68H679v127h280v69" id="ak"/><use transform="matrix(0.022222222222222223,0,0,0.022222222222222223,0,0)" xlink:href="#ak" id="t"/><path fill="#333" d="M342-776c-19 157-18 390-22 593 0 109 70 147 162 147 182 0 285-102 356-205l55 69C826-78 698 46 480 46c-142 0-240-60-240-221-4-205 23-449 1-602" id="al"/><use transform="matrix(0.022222222222222223,0,0,0.022222222222222223,0,0)" xlink:href="#al" id="u"/><path fill="#333" d="M89-664c160-7 562-56 789-62v80c-56 0-143 1-194 16-141 45-226 195-226 312 0 194 180 255 341 261l-29 83C587 19 378-79 378-300c0-155 93-280 184-334-87 10-357 36-464 58" id="am"/><use transform="matrix(0.022222222222222223,0,0,0.022222222222222223,0,0)" xlink:href="#am" id="v"/><path fill="#333" d="M226-696c-26 179-4 611 133 605 51 0 97-102 123-202l63 72C486-53 425 4 357 4c-93 0-183-93-210-350-16-135-4-244-17-352zm516 27c89 115 160 318 174 485l-81 32c-17-178-77-374-171-490" id="an"/><use transform="matrix(0.022222222222222223,0,0,0.022222222222222223,0,0)" xlink:href="#an" id="w"/><path fill="#333" d="M368-110c-5 72 127 88 210 71-9-78-56-132-131-132-45 0-79 27-79 61zM241-735c111 6 360 0 462-17l46 58c-91 57-203 166-313 256 45-15 90-21 134-21 165 0 284 100 284 234C854-65 721 39 512 39c-135 0-218-60-218-142 0-68 61-130 153-130 124 0 191 83 204 175 78-30 123-87 123-168 0-97-98-168-223-168-163 0-253 69-379 197l-58-59c184-153 327-270 494-416-91 5-285 10-365 20" id="ao"/><use transform="matrix(0.022222222222222223,0,0,0.022222222222222223,0,0)" xlink:href="#ao" id="x"/><path fill="#333" d="M890-830v445c-2 99-74 79-187 84-3-20-14-48-25-68 57 2 107 2 122 0 15 0 19-4 19-18v-443h71zm-187 50v333h-69v-333h69zm-437 50v137h123v-137H266zm123 203H261c-12 86-49 175-150 239-10-14-35-41-49-52 87-53 118-120 130-187H71v-66h126v-137h-93v-66h448v66h-93v137h113v66H459v214h-70v-214zM543-27h406v70H51v-70h417v-126H154v-68h314v-112h75v112h302v68H543v126" id="ap"/><use transform="matrix(0.022222222222222223,0,0,0.022222222222222223,0,0)" xlink:href="#ap" id="y"/><path fill="#333" d="M940-183H578C649-76 777-11 951 14c-16 15-35 45-45 64C711 44 575-40 499-183h-9C438-84 329 8 101 76c-8-16-29-44-45-60 195-54 297-124 349-199H66v-66h373c12-31 17-63 19-94H181v-62h279v-89H165v-63h295v-83h74v83h309v-115H153v125H81v-192h381v-97h74v97h382v192h-75v53H534v89h295v62H532c-2 31-7 63-16 94h424v66" id="aq"/><use transform="matrix(0.022222222222222223,0,0,0.022222222222222223,0,0)" xlink:href="#aq" id="z"/><path fill="#333" d="M215-205c37-1 38-36 40-79 0-56-11-127-68-209 23-72 46-165 62-233H148V76H83v-870c65-1 136 3 198-2l46 26c-23 84-52 189-80 271 57 84 70 159 71 222 0 100-30 143-132 135 0-19-5-45-15-64 17 2 32 2 44 1zm211 33l65 18C460-81 407-9 358 39c-13-11-40-29-56-38 50-44 96-108 124-173zm469-48H667V-1c0 36-7 54-35 65-26 10-67 11-132 10-4-18-15-45-24-62 48 1 92 1 104 1 13-1 17-4 17-15v-218H373v-61h522v61zm-143 76l56-31C860-121 916-45 940 5l-60 34c-22-50-78-127-128-183zM380-592c32 22 67 49 90 72 11-16 21-33 31-50-23-20-58-45-90-65-10 15-21 29-31 43zm176-109H450c-5 9-10 19-15 28 31 17 65 40 89 59 12-28 23-57 32-87zm335-57c21-9 37 14 55 20-29 85-77 176-128 238 42 50 91 90 148 117-14 12-35 37-45 56-47-25-88-57-124-96v56H463v-46c-35 37-74 68-114 92-9-15-26-39-41-51 48-25 93-63 133-111-23-22-58-52-90-75-10 11-20 21-30 30-11-10-36-30-50-39 76-63 136-161 169-268l61 14c-7 23-16 45-25 67 37-2 82 4 114-3l41 16c-29 129-85 234-154 313h315c-85-94-142-223-175-377l58-11c23 100 58 191 107 266 31-43 60-100 80-152H728v-56h163" id="ar"/><use transform="matrix(0.022222222222222223,0,0,0.022222222222222223,0,0)" xlink:href="#ar" id="A"/><path fill="#333" d="M128-290c1-190 41-336 51-467l90 7c-43 152-83 388-59 582 17-45 39-103 55-142l43 32c-32 110-83 193-72 301l-72 5c-20-70-36-184-36-318zm295 13l72 7c-9 36-13 64-13 91 0 45 30 89 166 89 89 0 165-8 245-26l1 84c-61 12-144 20-247 20-227-2-270-93-224-265zm34-315l-1-82c108 18 308 14 407 0v82c-106 11-298 11-406 0" id="as"/><use transform="matrix(0.022222222222222223,0,0,0.022222222222222223,0,0)" xlink:href="#as" id="B"/><path fill="#333" d="M279-839l70 22c-28 70-64 141-103 208V81h-71v-583c-35 49-73 93-110 130-7-17-28-55-42-72 101-95 198-244 256-395zm141 490h177c2-48 1-98 1-148H420v148zm435-148H671c0 50 1 100-1 148h185v-148zm71 211H666c-8 69-26 134-66 192C700-39 826-5 968 12c-16 16-34 45-44 67C783 58 658 19 556-42 506 7 434 49 330 80c-8-16-29-47-45-61C383-6 450-41 496-82c-59-45-108-99-145-163l62-20c30 52 73 96 126 133 32-47 47-99 54-154H351v-274h247v-98H322v-68h276v-107h73v107h288v68H671v98h255v274" id="at"/><use transform="matrix(0.022222222222222223,0,0,0.022222222222222223,0,0)" xlink:href="#at" id="C"/><path fill="#333" d="M164-401c128-25 269-105 442-105 140 0 242 84 242 219C848-96 664 2 397 18l-32-77c214-7 402-67 402-229 0-84-66-145-167-145-123 0-339 90-403 115" id="au"/><use transform="matrix(0.022222222222222223,0,0,0.022222222222222223,0,0)" xlink:href="#au" id="D"/></defs></g></svg>