<svg xmlns="http://www.w3.org/2000/svg" xmlns:xlink="http://www.w3.org/1999/xlink" xmlns:lucid="lucid" width="671" height="625"><g transform="translate(-168 -984)" lucid:page-tab-id="0_0"><path d="M0 0h1000v2500H0z" fill="#fff"/><path d="M440 1336a6 6 0 0 1 6-6h188a6 6 0 0 1 6 6v28a6 6 0 0 1-6 6H446a6 6 0 0 1-6-6zM440 1330h200m0 40H440" fill="#fff"/><path d="M440 1330h16.67m16.66 0h33.34m16.66 0h33.34m16.66 0h33.34m16.66 0H640m0 40h-16.67m-16.66 0h-33.34m-16.66 0h-33.34m-16.66 0h-33.34m-16.66 0H440" stroke="#635dff" stroke-width="3" fill="none"/><path d="M707.76 1350c0 11.05-22.38 20-50 20-27.6 0-50-8.95-50-20s22.4-20 50-20c27.62 0 50 8.95 50 20z" fill="#fff"/><path d="M676.85 1368.46l-10.3 1.23-8.8.3-12.2-.6-6.87-1.03m-18.4-5.18l-2.9-1.4-2.8-1.72-2-1.5-1.44-1.34-1.04-1.18-.77-1.07-.56-1-.4-.9-.3-.87-.2-.83-.1-.82v-.58l.03-.82.13-.82.2-.84.33-.88.45-.93.63-1 .84-1.1 1.14-1.2 1.6-1.4 2.2-1.56 3.13-1.8 1.87-.82m18.37-5.28l10.3-1.23 8.8-.3 12.2.6 6.87 1.03m18.4 5.18l2.9 1.4 2.82 1.72 2 1.5 1.42 1.34 1.05 1.18.76 1.07.55 1 .4.9.3.87.2.83.1.82v.58l-.03.82-.13.82-.22.84-.32.88-.45.93-.6 1-.85 1.1-1.14 1.2-1.56 1.4-2.2 1.56-3.15 1.8-1.87.82" stroke="#635dff" stroke-width="3" fill="none"/><path d="M767.26 1350c0 27.6-35.8 50-80 50-44.18 0-80-22.4-80-50s35.82-50 80-50c44.2 0 80 22.4 80 50z" stroke="#5e5e5e" stroke-width="3" fill-opacity="0"/><use xlink:href="#a" transform="matrix(1,0,0,1,612.2650507881351,1305) translate(40.833333333333336 53.90277777777777)"/><path d="M440 1306a6 6 0 0 1 6-6h188a6 6 0 0 1 6 6v88a6 6 0 0 1-6 6H446a6 6 0 0 1-6-6z" fill-opacity="0"/><path d="M440 1300h200m0 100H440" stroke="#5e5e5e" stroke-width="3" fill-opacity="0"/><use xlink:href="#b" transform="matrix(1,0,0,1,460,1300) translate(23.34444444444445 59.33333333333333)"/><path d="M440 1026a6 6 0 0 1 6-6h188a6 6 0 0 1 6 6v38a6 6 0 0 1-6 6H446a6 6 0 0 1-6-6zM440 1020h200m0 50H440" fill="#fff"/><path d="M440 1020h16.67m16.66 0h33.34m16.66 0h33.34m16.66 0h33.34m16.66 0H640m0 50h-16.67m-16.66 0h-33.34m-16.66 0h-33.34m-16.66 0h-33.34m-16.66 0H440" stroke="#635dff" stroke-width="3" fill="none"/><use xlink:href="#b" transform="matrix(1,0,0,1,460,1020) translate(23.34444444444445 34.33333333333333)"/><path d="M707.76 1045c0 13.8-22.38 25-50 25-27.6 0-50-11.2-50-25s22.4-25 50-25c27.62 0 50 11.2 50 25z" fill="#fff"/><path d="M677.78 1067.8l-3.7.84-9.24 1.1-7.08.26-9.9-.5-8.88-1.32-1.25-.32m-18.76-7.15l-1.6-.96-2.64-2-1.97-1.83-1.5-1.68-1.12-1.57-.84-1.47-.62-1.38-.44-1.33-.3-1.3-.15-1.27-.04-.9.06-1.27.2-1.28.33-1.3.5-1.35.67-1.4.92-1.5 1.22-1.6 1.62-1.73 2.15-1.88 2.86-2.05.66-.38m18.78-7.08l3.7-.84 9.24-1.1 7.08-.26 9.9.5 8.88 1.32 1.25.32m18.75 7.15l1.6.96 2.64 2 1.96 1.83 1.5 1.68 1.12 1.57.84 1.47.62 1.38.44 1.33.3 1.3.15 1.27.03.9-.06 1.27-.2 1.28-.33 1.3-.5 1.35-.67 1.4-.92 1.5-1.22 1.6-1.62 1.73-2.15 1.88-2.87 2.05-.67.38" stroke="#635dff" stroke-width="3" fill="none"/><use xlink:href="#c" transform="matrix(1,0,0,1,612.760619145063,1025) translate(15.205 28.277777777777775)"/><path d="M563.75 1100a6 6 0 0 1 6 6v112a6 6 0 0 0 6 6h8a2.3 2.3 0 0 1 1.54 4l-31.1 28a6.67 6.67 0 0 1-8.9 0l-31.1-28a2.3 2.3 0 0 1 1.55-4h8a6 6 0 0 0 6-6v-112a6 6 0 0 1 6-6z" stroke="#5e5e5e" stroke-width="3" fill="#fff"/><path d="M579.5 1106a6 6 0 0 1 6-6h254.37a6 6 0 0 1 6 6v148a6 6 0 0 1-6 6H585.5a6 6 0 0 1-6-6z" stroke="#000" stroke-opacity="0" stroke-width="3" fill="#fff" fill-opacity="0"/><use xlink:href="#d" transform="matrix(1,0,0,1,584.5044316430722,1105) translate(29.71111111111111 35.15277777777777)"/><use xlink:href="#e" transform="matrix(1,0,0,1,584.5044316430722,1105) translate(72.94444444444444 68.04166666666666)"/><use xlink:href="#f" transform="matrix(1,0,0,1,584.5044316430722,1105) translate(95.16666666666666 68.04166666666666)"/><use xlink:href="#g" transform="matrix(1,0,0,1,584.5044316430722,1105) translate(117.38888888888889 68.04166666666666)"/><use xlink:href="#h" transform="matrix(1,0,0,1,584.5044316430722,1105) translate(139.6111111111111 68.04166666666666)"/><use xlink:href="#i" transform="matrix(1,0,0,1,584.5044316430722,1105) translate(161.83333333333331 68.04166666666666)"/><use xlink:href="#j" transform="matrix(1,0,0,1,584.5044316430722,1105) translate(25.34444444444445 100.93055555555554)"/><use xlink:href="#e" transform="matrix(1,0,0,1,584.5044316430722,1105) translate(19.23333333333332 133.81944444444443)"/><use xlink:href="#k" transform="matrix(1,0,0,1,584.5044316430722,1105) translate(41.45555555555554 133.81944444444443)"/><use xlink:href="#l" transform="matrix(1,0,0,1,584.5044316430722,1105) translate(63.67777777777776 133.81944444444443)"/><use xlink:href="#m" transform="matrix(1,0,0,1,584.5044316430722,1105) translate(85.89999999999998 133.81944444444443)"/><use xlink:href="#n" transform="matrix(1,0,0,1,584.5044316430722,1105) translate(108.1222222222222 133.81944444444443)"/><use xlink:href="#o" transform="matrix(1,0,0,1,584.5044316430722,1105) translate(130.34444444444443 133.81944444444443)"/><use xlink:href="#p" transform="matrix(1,0,0,1,584.5044316430722,1105) translate(152.56666666666666 133.81944444444443)"/><use xlink:href="#q" transform="matrix(1,0,0,1,584.5044316430722,1105) translate(174.7888888888889 133.81944444444443)"/><use xlink:href="#r" transform="matrix(1,0,0,1,584.5044316430722,1105) translate(197.01111111111112 133.81944444444443)"/><path d="M200 1476a6 6 0 0 1 6-6h84.92a6 6 0 0 1 6 6v28a6 6 0 0 1-6 6H206a6 6 0 0 1-6-6zM200 1470h96.92m0 40H200" fill="#fff"/><path d="M200 1470h16.15m16.16 0h32.3m16.16 0h16.16m0 40h-16.16m-16.15 0h-32.3m-16.15 0H200" stroke="#635dff" stroke-width="3" fill="none"/><path d="M329.75 1490c0 11.05-10.85 20-24.23 20s-24.23-8.95-24.23-20 10.84-20 24.22-20c13.38 0 24.23 8.95 24.23 20z" fill="#fff"/><path d="M316.76 1507.58l-1.9.88-5.63 1.3-3.7.24-5.98-.6-5.32-1.7m-9.06-7.02l-1.4-1.84-1.55-3.35-.8-3.4-.13-2.1.35-3.43 1.08-3.37 1.9-3.33.5-.57m9.16-6.88l1.88-.88 5.63-1.3 3.72-.24 5.98.6 5.32 1.7m9.06 7.02l1.38 1.84 1.57 3.35.8 3.4.12 2.1-.35 3.43-1.08 3.37-1.9 3.33-.5.57" stroke="#635dff" stroke-width="3" fill="none"/><path d="M200 1556a6 6 0 0 1 6-6h84.92a6 6 0 0 1 6 6v28a6 6 0 0 1-6 6H206a6 6 0 0 1-6-6z" fill="#fff"/><path d="M200 1550h96.92m0 40H200M329.75 1570c0 11.05-10.85 20-24.23 20s-24.23-8.95-24.23-20 10.84-20 24.22-20c13.38 0 24.23 8.95 24.23 20z" stroke="#333" stroke-width="3" fill="#fff"/><path d="M320 1466a6 6 0 0 1 6-6h188a6 6 0 0 1 6 6v48a6 6 0 0 1-6 6H326a6 6 0 0 1-6-6z" stroke="#000" stroke-opacity="0" stroke-width="3" fill="#fff" fill-opacity="0"/><g><use xlink:href="#s" transform="matrix(1,0,0,1,325.0000000000001,1465) translate(17.222222222222214 35.15277777777777)"/><use xlink:href="#t" transform="matrix(1,0,0,1,325.0000000000001,1465) translate(39.444444444444436 35.15277777777777)"/><use xlink:href="#u" transform="matrix(1,0,0,1,325.0000000000001,1465) translate(61.66666666666666 35.15277777777777)"/><use xlink:href="#v" transform="matrix(1,0,0,1,325.0000000000001,1465) translate(83.88888888888887 35.15277777777777)"/><use xlink:href="#w" transform="matrix(1,0,0,1,325.0000000000001,1465) translate(106.1111111111111 35.15277777777777)"/><use xlink:href="#x" transform="matrix(1,0,0,1,325.0000000000001,1465) translate(128.33333333333331 35.15277777777777)"/><use xlink:href="#y" transform="matrix(1,0,0,1,325.0000000000001,1465) translate(150.55555555555554 35.15277777777777)"/></g><path d="M329.75 1547.06a6 6 0 0 1 6-6h208a6 6 0 0 1 6 6v45.88a6 6 0 0 1-6 6h-208a6 6 0 0 1-6-6z" stroke="#000" stroke-opacity="0" stroke-width="3" fill="#fff" fill-opacity="0"/><g><use xlink:href="#z" transform="matrix(1,0,0,1,334.7522158215361,1546.0555555555557) translate(4.999999999999986 34.77777777777777)"/><use xlink:href="#A" transform="matrix(1,0,0,1,334.7522158215361,1546.0555555555557) translate(27.222222222222207 34.77777777777777)"/><use xlink:href="#B" transform="matrix(1,0,0,1,334.7522158215361,1546.0555555555557) translate(49.44444444444443 34.77777777777777)"/><use xlink:href="#C" transform="matrix(1,0,0,1,334.7522158215361,1546.0555555555557) translate(71.66666666666664 34.77777777777777)"/><use xlink:href="#D" transform="matrix(1,0,0,1,334.7522158215361,1546.0555555555557) translate(93.88888888888887 34.77777777777777)"/><use xlink:href="#v" transform="matrix(1,0,0,1,334.7522158215361,1546.0555555555557) translate(116.1111111111111 34.77777777777777)"/><use xlink:href="#w" transform="matrix(1,0,0,1,334.7522158215361,1546.0555555555557) translate(138.33333333333331 34.77777777777777)"/><use xlink:href="#x" transform="matrix(1,0,0,1,334.7522158215361,1546.0555555555557) translate(160.55555555555554 34.77777777777777)"/><use xlink:href="#y" transform="matrix(1,0,0,1,334.7522158215361,1546.0555555555557) translate(182.77777777777777 34.77777777777777)"/></g><defs><path fill="#333" d="M371 13C187 13 58-134 58-369s129-378 313-378 313 143 313 378S555 13 371 13zm0-81c131 0 218-118 218-301 0-184-87-297-218-297-132 0-218 113-218 297 0 183 86 301 218 301" id="E"/><path fill="#333" d="M567-281C567-18 341 97 176-56h-3l-8 56H92v-796h91c0 106 2 214-3 316 49-43 110-77 170-77 141 0 217 110 217 276zM183-120C317-1 471-73 472-279c0-120-40-201-143-201-46 0-94 26-146 75v285" id="F"/><path fill="#333" d="M36 243c-33 0-61-7-80-14l18-70c14 5 32 10 51 10 55 0 68-41 68-107v-605h91V62c0 111-41 181-148 181zm103-898c-36 0-63-25-63-59 0-37 27-59 63-59 35 0 63 22 63 59 0 34-28 59-63 59" id="G"/><path fill="#333" d="M311 13C167 13 51-92 51-271c0-176 119-286 245-286 154-3 234 132 212 307H142c6 116 77 190 180 190 53 0 96-16 136-43l33 60c-48 31-106 56-180 56zM141-315h291c0-110-50-169-135-169-77 0-145 62-156 169" id="H"/><path fill="#333" d="M306 13C162 13 51-91 51-271c0-181 123-286 262-286 71 0 120 30 159 64l-47 61c-32-29-65-49-109-49-98 0-170 85-170 210S214-63 314-63c50 0 94-23 128-54l39 61c-48 44-110 69-175 69" id="I"/><path fill="#333" d="M263 13c-116 0-155-72-155-181v-301H27v-69l85-5 11-152h76v152h147v74H199v303c0 67 21 105 84 105 19 0 44-7 62-14l18 68c-31 10-67 20-100 20" id="J"/><g id="a"><use transform="matrix(0.022222222222222223,0,0,0.022222222222222223,0,0)" xlink:href="#E"/><use transform="matrix(0.022222222222222223,0,0,0.022222222222222223,16.48888888888889,0)" xlink:href="#F"/><use transform="matrix(0.022222222222222223,0,0,0.022222222222222223,30.222222222222225,0)" xlink:href="#G"/><use transform="matrix(0.022222222222222223,0,0,0.022222222222222223,36.333333333333336,0)" xlink:href="#H"/><use transform="matrix(0.022222222222222223,0,0,0.022222222222222223,48.644444444444446,0)" xlink:href="#I"/><use transform="matrix(0.022222222222222223,0,0,0.022222222222222223,59.955555555555556,0)" xlink:href="#J"/></g><path fill="#333" d="M377 13C195 13 58-128 58-366c0-237 139-381 325-381 89 0 159 44 201 91l-50 60c-38-41-87-70-150-70-139 0-231 114-231 297 0 185 88 301 228 301 70 0 123-31 170-82l51 58C544-25 472 13 377 13" id="K"/><path fill="#333" d="M303 13C170 13 51-91 51-271c0-181 119-286 252-286s252 105 252 286C555-91 436 13 303 13zm0-76c94 0 158-83 158-208s-64-210-158-210-157 85-157 210S209-63 303-63" id="L"/><path fill="#333" d="M209 0L13-543h95c51 155 104 312 153 469h4c48-158 101-314 153-469h90L315 0H209" id="M"/><path fill="#333" d="M217 13C126 13 58-43 58-141c0-118 103-177 334-203 0-70-23-137-112-137-63 0-120 29-163 58l-36-63c50-32 127-71 214-71 132 0 188 89 188 223V0h-75l-8-65h-3c-52 43-113 78-180 78zm26-73c53 0 96-25 149-72v-152c-183 22-245 67-245 137 0 62 42 87 96 87" id="N"/><path fill="#333" d="M92 0v-543h75l8 99h3c50-86 117-137 212-101l-17 80c-18-7-31-9-53-9-45 0-101 32-137 125V0H92" id="O"/><path fill="#333" d="M92 0v-543h91V0H92zm46-655c-36 0-63-25-63-59 0-37 27-59 63-59s63 22 63 59c0 34-27 59-63 59" id="P"/><path fill="#333" d="M92 0v-543h75l8 78h3c52-51 108-92 182-92 114 0 166 74 166 213V0h-91v-332c0-102-31-145-103-145-56 0-94 28-149 83V0H92" id="Q"/><path fill="#333" d="M44 0v-54c230-201 336-347 336-473 0-84-44-145-135-145-60 0-112 37-152 85l-53-52c60-65 123-108 216-108 131 0 213 86 213 217 0 146-115 295-287 458 102-11 212-6 323-7V0H44" id="R"/><g id="b"><use transform="matrix(0.022222222222222223,0,0,0.022222222222222223,0,0)" xlink:href="#K"/><use transform="matrix(0.022222222222222223,0,0,0.022222222222222223,14.177777777777779,0)" xlink:href="#L"/><use transform="matrix(0.022222222222222223,0,0,0.022222222222222223,27.644444444444446,0)" xlink:href="#M"/><use transform="matrix(0.022222222222222223,0,0,0.022222222222222223,39.22222222222222,0)" xlink:href="#N"/><use transform="matrix(0.022222222222222223,0,0,0.022222222222222223,51.75555555555556,0)" xlink:href="#O"/><use transform="matrix(0.022222222222222223,0,0,0.022222222222222223,60.37777777777777,0)" xlink:href="#P"/><use transform="matrix(0.022222222222222223,0,0,0.022222222222222223,66.48888888888888,0)" xlink:href="#N"/><use transform="matrix(0.022222222222222223,0,0,0.022222222222222223,79.02222222222221,0)" xlink:href="#Q"/><use transform="matrix(0.022222222222222223,0,0,0.022222222222222223,92.60000000000001,0)" xlink:href="#J"/><use transform="matrix(0.022222222222222223,0,0,0.022222222222222223,100.97777777777779,0)" xlink:href="#R"/></g><path fill="#333" d="M234 13C157 13 83-19 31-62l45-60c47 38 96 64 161 64 72 0 107-38 107-85 0-55-64-80-124-103-76-28-162-65-162-157 0-86 69-154 187-154 67 0 126 28 169 61l-44 59c-38-28-76-48-125-48-68 0-99 36-99 78 0 52 59 71 120 94 79 30 166 62 166 165 0 88-70 161-198 161" id="S"/><path fill="#333" d="M275 250c-133 0-225-52-225-146 0-46 30-90 81-123v-4c-29-17-50-46-50-89 0-45 33-81 61-101v-4c-36-29-71-81-71-146-2-145 144-228 280-180h189v70H429c26 25 44 65 44 112 4 144-147 228-279 170-52 42-57 131 60 124h106c126 0 189 40 189 129 0 101-106 188-274 188zm0-484c62 0 115-50 115-129s-51-127-115-127-116 47-116 127c0 79 53 129 116 129zm13 422c104 0 173-55 173-112 0-103-183-49-275-76-106 75-57 194 102 188" id="T"/><g id="c"><use transform="matrix(0.022222222222222223,0,0,0.022222222222222223,0,0)" xlink:href="#S"/><use transform="matrix(0.022222222222222223,0,0,0.022222222222222223,10.4,0)" xlink:href="#J"/><use transform="matrix(0.022222222222222223,0,0,0.022222222222222223,18.77777777777778,0)" xlink:href="#O"/><use transform="matrix(0.022222222222222223,0,0,0.022222222222222223,27.400000000000002,0)" xlink:href="#P"/><use transform="matrix(0.022222222222222223,0,0,0.022222222222222223,33.51111111111111,0)" xlink:href="#Q"/><use transform="matrix(0.022222222222222223,0,0,0.022222222222222223,47.08888888888889,0)" xlink:href="#T"/></g><path fill="#333" d="M517-146L38-334v-73l479-188v79c-129 47-258 95-386 143v4c128 48 257 96 386 143v80" id="U"/><path fill="#333" d="M38-146v-80c129-47 258-95 386-143v-4c-128-48-257-96-386-143v-79l479 188v73" id="V"/><g id="d"><use transform="matrix(0.022222222222222223,0,0,0.022222222222222223,0,0)" xlink:href="#K"/><use transform="matrix(0.022222222222222223,0,0,0.022222222222222223,14.177777777777779,0)" xlink:href="#L"/><use transform="matrix(0.022222222222222223,0,0,0.022222222222222223,27.644444444444446,0)" xlink:href="#M"/><use transform="matrix(0.022222222222222223,0,0,0.022222222222222223,39.22222222222222,0)" xlink:href="#N"/><use transform="matrix(0.022222222222222223,0,0,0.022222222222222223,51.75555555555556,0)" xlink:href="#O"/><use transform="matrix(0.022222222222222223,0,0,0.022222222222222223,60.37777777777777,0)" xlink:href="#P"/><use transform="matrix(0.022222222222222223,0,0,0.022222222222222223,66.48888888888888,0)" xlink:href="#N"/><use transform="matrix(0.022222222222222223,0,0,0.022222222222222223,79.02222222222221,0)" xlink:href="#Q"/><use transform="matrix(0.022222222222222223,0,0,0.022222222222222223,92.60000000000001,0)" xlink:href="#J"/><use transform="matrix(0.022222222222222223,0,0,0.022222222222222223,100.97777777777779,0)" xlink:href="#R"/><use transform="matrix(0.022222222222222223,0,0,0.022222222222222223,113.31111111111109,0)" xlink:href="#U"/><use transform="matrix(0.022222222222222223,0,0,0.022222222222222223,125.64444444444443,0)" xlink:href="#S"/><use transform="matrix(0.022222222222222223,0,0,0.022222222222222223,136.04444444444442,0)" xlink:href="#J"/><use transform="matrix(0.022222222222222223,0,0,0.022222222222222223,144.4222222222222,0)" xlink:href="#O"/><use transform="matrix(0.022222222222222223,0,0,0.022222222222222223,153.04444444444442,0)" xlink:href="#P"/><use transform="matrix(0.022222222222222223,0,0,0.022222222222222223,159.15555555555554,0)" xlink:href="#Q"/><use transform="matrix(0.022222222222222223,0,0,0.022222222222222223,172.73333333333332,0)" xlink:href="#T"/><use transform="matrix(0.022222222222222223,0,0,0.022222222222222223,185.24444444444444,0)" xlink:href="#V"/></g><path fill="#333" d="M271-140c44 0 99-66 150-233 25-82 44-176 55-267-190 24-306 187-306 320 0 125 58 180 101 180zm215 91c184-13 336-101 336-305 0-150-95-273-263-287-13 92-32 192-59 285C439-153 360-48 268-48 180-48 91-150 91-313c0-215 192-403 434-403 232 0 380 164 380 364C905-144 768-5 532 26" id="W"/><use transform="matrix(0.022222222222222223,0,0,0.022222222222222223,0,0)" xlink:href="#W" id="e"/><path fill="#333" d="M77-522c154-32 319-127 532-127 164 0 295 95 295 261 0 238-236 353-542 370l-35-83c259-7 489-85 489-288 0-104-75-185-209-185-163 0-415 109-493 140" id="X"/><use transform="matrix(0.022222222222222223,0,0,0.022222222222222223,0,0)" xlink:href="#X" id="f"/><path fill="#333" d="M342-616c7-69 15-106 12-172l90 5c-15 64-15 95-26 170 75 0 142-4 200-12l-2 75c-64 6-127 10-208 10-8 58-15 120-22 177 76 0 149-2 225-12l-2 76c-78 8-149 9-230 9-23 148 6 251 161 252 150 0 246-64 246-167 0-67-36-141-109-202l89-18c68 75 102 144 102 229C868-49 735 41 540 41c-135 0-244-59-244-221 0-27 3-67 8-114-74-6-146-17-206-36l4-76c65 23 139 35 209 40 7-58 15-120 22-178-71-6-149-18-211-34l4-74c62 20 142 32 216 36" id="Y"/><use transform="matrix(0.022222222222222223,0,0,0.022222222222222223,0,0)" xlink:href="#Y" id="g"/><path fill="#333" d="M225-227c-29-175 13-400 28-562l88 3c-21 73-40 206-46 275 39-102 143-225 268-225 132 0 227 132 227 340C790-121 617 0 371 45l-47-72c215-33 383-119 383-368 0-156-52-268-157-268-123 0-237 179-249 309-5 38-5 72 2 121" id="Z"/><use transform="matrix(0.022222222222222223,0,0,0.022222222222222223,0,0)" xlink:href="#Z" id="h"/><path fill="#333" d="M732-519c23 33 61 95 82 139l-51 24c-23-48-52-100-82-141zm109-42c24 33 63 94 87 138l-52 24c-24-48-53-97-85-139zM83-658c160-7 562-55 789-62v80c-57 0-143 1-194 16-141 45-226 196-226 313 0 193 180 254 341 260l-29 84C581 25 372-73 372-294c0-154 93-280 184-334-87 10-357 36-464 58" id="aa"/><use transform="matrix(0.022222222222222223,0,0,0.022222222222222223,0,0)" xlink:href="#aa" id="i"/><g id="j"><use transform="matrix(0.022222222222222223,0,0,0.022222222222222223,0,0)" xlink:href="#K"/><use transform="matrix(0.022222222222222223,0,0,0.022222222222222223,14.177777777777779,0)" xlink:href="#L"/><use transform="matrix(0.022222222222222223,0,0,0.022222222222222223,27.644444444444446,0)" xlink:href="#M"/><use transform="matrix(0.022222222222222223,0,0,0.022222222222222223,39.22222222222222,0)" xlink:href="#N"/><use transform="matrix(0.022222222222222223,0,0,0.022222222222222223,51.75555555555556,0)" xlink:href="#O"/><use transform="matrix(0.022222222222222223,0,0,0.022222222222222223,60.37777777777777,0)" xlink:href="#P"/><use transform="matrix(0.022222222222222223,0,0,0.022222222222222223,66.48888888888888,0)" xlink:href="#N"/><use transform="matrix(0.022222222222222223,0,0,0.022222222222222223,79.02222222222221,0)" xlink:href="#Q"/><use transform="matrix(0.022222222222222223,0,0,0.022222222222222223,92.60000000000001,0)" xlink:href="#J"/><use transform="matrix(0.022222222222222223,0,0,0.022222222222222223,100.97777777777779,0)" xlink:href="#R"/><use transform="matrix(0.022222222222222223,0,0,0.022222222222222223,113.31111111111109,0)" xlink:href="#U"/><use transform="matrix(0.022222222222222223,0,0,0.022222222222222223,125.64444444444443,0)" xlink:href="#E"/><use transform="matrix(0.022222222222222223,0,0,0.022222222222222223,142.13333333333333,0)" xlink:href="#F"/><use transform="matrix(0.022222222222222223,0,0,0.022222222222222223,155.86666666666667,0)" xlink:href="#G"/><use transform="matrix(0.022222222222222223,0,0,0.022222222222222223,161.9777777777778,0)" xlink:href="#H"/><use transform="matrix(0.022222222222222223,0,0,0.022222222222222223,174.2888888888889,0)" xlink:href="#I"/><use transform="matrix(0.022222222222222223,0,0,0.022222222222222223,185.6,0)" xlink:href="#J"/><use transform="matrix(0.022222222222222223,0,0,0.022222222222222223,193.97777777777773,0)" xlink:href="#V"/></g><path fill="#333" d="M384-738H165v77h219v-77zM165-527h219v-83H165v83zm289 55H165V77H92v-871h362v322zm159-53h227v-85H613v85zm227-213H613v77h227v-77zm73-56v782c-1 94-59 86-166 88-2-18-11-47-20-66-4 6-8 12-10 17-98-26-171-78-217-150-29 56-92 112-225 153-9-14-29-37-44-50 141-39 196-96 216-148H240v-57h218v-78H257v-56h107c-10-26-27-58-45-81l58-19c24 31 47 72 54 100h130c17-31 38-72 48-102l67 22c-17 27-35 56-51 80h118v56H524v78h236v57H540C582-97 657-48 759-28c-9 8-20 21-29 33 42 2 81 2 93 1 13 0 17-5 17-19v-458H542v-323h371" id="ab"/><use transform="matrix(0.022222222222222223,0,0,0.022222222222222223,0,0)" xlink:href="#ab" id="k"/><path fill="#333" d="M438-817l65 27c-29 46-63 96-89 129l-50-24c24-35 58-93 74-132zM207-685l-59 26c-9-35-35-90-62-131l56-23c28 40 55 93 65 128zm438 101c15 115 47 225 86 319 43-89 70-195 88-319H645zM372-245H232c-14 28-29 55-42 81 40 16 80 34 119 53 30-36 50-80 63-134zm584-339h-60c-25 162-63 294-124 401C822-97 885-29 965 13c-17 14-41 43-51 63-77-45-138-109-187-189C668-35 593 29 495 79c-6-13-19-35-32-52l-23 24c-31-25-71-52-117-79C265 20 186 53 79 76c-5-20-20-47-34-61 92-16 162-41 213-78-32-16-65-32-98-46l-16 28-64-23c22-38 49-89 76-141H43v-62h144c15-30 29-59 41-86l26 6v-138c-50 59-114 114-175 147-9-17-27-43-41-56 71-32 147-94 196-159H49v-61h205v-183h69v183h203v61H323v5c43 25 151 93 178 113l-41 53c-26-24-89-72-137-108v149h-43l17 4c-11 22-22 46-34 70h267v62h-87c-14 67-37 122-71 167 44 24 84 50 115 73 85-47 151-107 200-182-38-81-67-174-90-276-21 47-46 89-73 125-11-14-43-39-60-51 84-105 136-272 163-448l76 11c-10 59-23 117-37 172h290v70" id="ac"/><use transform="matrix(0.022222222222222223,0,0,0.022222222222222223,0,0)" xlink:href="#ac" id="l"/><path fill="#333" d="M878-441c-104 35-177 66-289 117 1 57 2 141 3 189h-77c3-38 4-102 4-154-92 50-156 101-156 166 0 78 77 89 179 89 77 0 183-9 270-24l-2 81C627 35 282 94 283-112c0-117 118-191 233-251-10-41-46-61-89-61-128 6-195 93-261 177l-68-51c126-122 191-224 228-302-66 0-130-1-204-6v-75c82 8 153 12 232 9 14-44 23-89 25-123l82 7c-7 28-16 69-30 114 101-5 209-14 303-30l-1 74c-98 15-220 24-328 28-22 51-53 106-89 152 87-54 243-58 268 53 102-48 174-74 262-119" id="ad"/><use transform="matrix(0.022222222222222223,0,0,0.022222222222222223,0,0)" xlink:href="#ad" id="m"/><path fill="#333" d="M251-664H144v396h107v-396zm67-69v534H144v93H78v-627h240zm637 380v71H689v262c0 47-12 67-42 80-31 12-81 14-164 13-4-20-16-51-28-71 63 2 121 1 136 1 18 0 25-6 25-23v-262H361v-71h255v-350c-76 9-155 16-228 21-2-17-12-44-20-61 174-14 381-40 497-74l51 59c-63 18-143 33-227 45v360h266zM400-622l62-20c38 73 70 169 80 233l-66 22c-9-64-40-162-76-235zm407 238l-59-21c32-65 73-175 94-252l72 21c-32 84-73 188-107 252" id="ae"/><use transform="matrix(0.022222222222222223,0,0,0.022222222222222223,0,0)" xlink:href="#ae" id="n"/><path fill="#333" d="M871-640l-52 20c-19-45-45-105-67-143l50-17c20 37 52 99 69 140zM93-659c110-3 292-34 371-60l24 72c-13 5-38 11-52 18-63 47-213 234-213 417 0 136 86 190 182 190 206 0 323-239 254-604-8-23-16-47-24-72l77-24c25 120 84 282 211 409l-59 62c-45-55-85-115-122-185 21 250-83 497-340 497-159 0-257-103-257-262 0-170 97-329 178-413-78 13-151 25-218 39zm762-141l49-19c22 37 52 98 71 140l-52 19c-19-45-45-103-68-140" id="af"/><use transform="matrix(0.022222222222222223,0,0,0.022222222222222223,0,0)" xlink:href="#af" id="o"/><path fill="#333" d="M814-336h76V74h-76V14H190v62h-74v-412h74v277h267v-341H154v-342h74v270h229v-359h76v359h240v-270h77v342H533v341h281v-277" id="ag"/><use transform="matrix(0.022222222222222223,0,0,0.022222222222222223,0,0)" xlink:href="#ag" id="p"/><path fill="#333" d="M480-234c58 0 96-47 87-141-35-101-190-70-188 43 0 62 46 98 101 98zm63-428c0-52-3-88-8-127h91c-4 45-6 72-6 126 117 0 257 1 305 1l-1 75c-54-3-163-5-304-5 0 56 1 117 2 162 21 34 32 78 32 127 0 134-65 283-295 352l-69-67c130-30 222-84 263-172-106 64-250-1-249-141 0-120 119-204 241-162 0-29 0-64-1-98-150 1-318 8-442 17l-2-78c110-2 296-8 443-10" id="ah"/><use transform="matrix(0.022222222222222223,0,0,0.022222222222222223,0,0)" xlink:href="#ah" id="q"/><path fill="#333" d="M423-482c134-82 232-116 325-186l43 73c-109 65-238 115-377 205-92 60-147 125-147 200 0 82 78 133 234 133 108 0 240-14 317-34v90c-75 13-189 24-313 24-186 0-321-56-321-204 0-102 65-183 171-257-46-81-98-197-144-305l79-32c40 108 90 215 133 293" id="ai"/><path fill="#333" d="M139 13c-36 0-66-28-66-69s30-71 66-71 66 30 66 71-30 69-66 69" id="aj"/><g id="r"><use transform="matrix(0.022222222222222223,0,0,0.022222222222222223,0,0)" xlink:href="#ai"/><use transform="matrix(0.022222222222222223,0,0,0.022222222222222223,22.22222222222222,0)" xlink:href="#aj"/><use transform="matrix(0.022222222222222223,0,0,0.022222222222222223,28.400000000000002,0)" xlink:href="#aj"/><use transform="matrix(0.022222222222222223,0,0,0.022222222222222223,34.577777777777776,0)" xlink:href="#aj"/></g><path fill="#333" d="M207-332v100h181v-100H207zm181-306H207v88h181v-88zM207-490v98h181v-98H207zm323 258v67H42v-67h97v-406H55v-67h84v-121h68v121h181v-121h69v121h73v67h-73v406h73zm-350 88l71 19C215-48 158 28 103 77 89 65 61 44 43 34 98-11 150-78 180-144zm142 31l58-31C420-99 466-37 485 4l-60 35C407-1 362-66 322-113zm325-214h206v-166H649c0 57 0 108-2 166zm206-392H649v159h204v-159zm72-68v768c-5 105-66 86-187 92-3-21-13-53-23-72 53 1 103 1 117 0 15 0 21-5 21-21v-240H642c-10 119-35 246-95 342-12-14-42-37-59-44 83-132 91-321 91-464v-361h346" id="ak"/><use transform="matrix(0.022222222222222223,0,0,0.022222222222222223,0,0)" xlink:href="#ak" id="s"/><path fill="#333" d="M257-834l70 27c-58 85-154 179-242 238-8-17-26-45-38-60 78-51 167-135 210-205zm17 219l65 26c-22 42-50 83-80 122V76h-72v-458c-37 41-76 79-115 110-7-17-27-55-40-73 89-65 185-167 242-270zm143 411l60-34c46 52 98 124 120 172l-63 37c-21-48-71-123-117-175zm542-240H818v110h134v68H818v252c0 45-9 65-40 77s-83 12-160 12c-3-21-14-50-24-71 60 2 115 2 130 1 17-1 21-5 21-19v-252H340v-68h405v-110H329v-69h277v-127H387v-68h219v-124h73v124h228v68H679v127h280v69" id="al"/><use transform="matrix(0.022222222222222223,0,0,0.022222222222222223,0,0)" xlink:href="#al" id="t"/><path fill="#333" d="M342-776c-19 157-18 390-22 593 0 109 70 147 162 147 182 0 285-102 356-205l55 69C826-78 698 46 480 46c-142 0-240-60-240-221-4-205 23-449 1-602" id="am"/><use transform="matrix(0.022222222222222223,0,0,0.022222222222222223,0,0)" xlink:href="#am" id="u"/><path fill="#333" d="M89-664c160-7 562-56 789-62v80c-56 0-143 1-194 16-141 45-226 195-226 312 0 194 180 255 341 261l-29 83C587 19 378-79 378-300c0-155 93-280 184-334-87 10-357 36-464 58" id="an"/><use transform="matrix(0.022222222222222223,0,0,0.022222222222222223,0,0)" xlink:href="#an" id="v"/><path fill="#333" d="M226-696c-26 179-4 611 133 605 51 0 97-102 123-202l63 72C486-53 425 4 357 4c-93 0-183-93-210-350-16-135-4-244-17-352zm516 27c89 115 160 318 174 485l-81 32c-17-178-77-374-171-490" id="ao"/><use transform="matrix(0.022222222222222223,0,0,0.022222222222222223,0,0)" xlink:href="#ao" id="w"/><path fill="#333" d="M368-110c-5 72 127 88 210 71-9-78-56-132-131-132-45 0-79 27-79 61zM241-735c111 6 360 0 462-17l46 58c-91 57-203 166-313 256 45-15 90-21 134-21 165 0 284 100 284 234C854-65 721 39 512 39c-135 0-218-60-218-142 0-68 61-130 153-130 124 0 191 83 204 175 78-30 123-87 123-168 0-97-98-168-223-168-163 0-253 69-379 197l-58-59c184-153 327-270 494-416-91 5-285 10-365 20" id="ap"/><use transform="matrix(0.022222222222222223,0,0,0.022222222222222223,0,0)" xlink:href="#ap" id="x"/><path fill="#333" d="M890-830v445c-2 99-74 79-187 84-3-20-14-48-25-68 57 2 107 2 122 0 15 0 19-4 19-18v-443h71zm-187 50v333h-69v-333h69zm-437 50v137h123v-137H266zm123 203H261c-12 86-49 175-150 239-10-14-35-41-49-52 87-53 118-120 130-187H71v-66h126v-137h-93v-66h448v66h-93v137h113v66H459v214h-70v-214zM543-27h406v70H51v-70h417v-126H154v-68h314v-112h75v112h302v68H543v126" id="aq"/><use transform="matrix(0.022222222222222223,0,0,0.022222222222222223,0,0)" xlink:href="#aq" id="y"/><path fill="#333" d="M940-183H578C649-76 777-11 951 14c-16 15-35 45-45 64C711 44 575-40 499-183h-9C438-84 329 8 101 76c-8-16-29-44-45-60 195-54 297-124 349-199H66v-66h373c12-31 17-63 19-94H181v-62h279v-89H165v-63h295v-83h74v83h309v-115H153v125H81v-192h381v-97h74v97h382v192h-75v53H534v89h295v62H532c-2 31-7 63-16 94h424v66" id="ar"/><use transform="matrix(0.022222222222222223,0,0,0.022222222222222223,0,0)" xlink:href="#ar" id="z"/><path fill="#333" d="M215-205c37-1 38-36 40-79 0-56-11-127-68-209 23-72 46-165 62-233H148V76H83v-870c65-1 136 3 198-2l46 26c-23 84-52 189-80 271 57 84 70 159 71 222 0 100-30 143-132 135 0-19-5-45-15-64 17 2 32 2 44 1zm211 33l65 18C460-81 407-9 358 39c-13-11-40-29-56-38 50-44 96-108 124-173zm469-48H667V-1c0 36-7 54-35 65-26 10-67 11-132 10-4-18-15-45-24-62 48 1 92 1 104 1 13-1 17-4 17-15v-218H373v-61h522v61zm-143 76l56-31C860-121 916-45 940 5l-60 34c-22-50-78-127-128-183zM380-592c32 22 67 49 90 72 11-16 21-33 31-50-23-20-58-45-90-65-10 15-21 29-31 43zm176-109H450c-5 9-10 19-15 28 31 17 65 40 89 59 12-28 23-57 32-87zm335-57c21-9 37 14 55 20-29 85-77 176-128 238 42 50 91 90 148 117-14 12-35 37-45 56-47-25-88-57-124-96v56H463v-46c-35 37-74 68-114 92-9-15-26-39-41-51 48-25 93-63 133-111-23-22-58-52-90-75-10 11-20 21-30 30-11-10-36-30-50-39 76-63 136-161 169-268l61 14c-7 23-16 45-25 67 37-2 82 4 114-3l41 16c-29 129-85 234-154 313h315c-85-94-142-223-175-377l58-11c23 100 58 191 107 266 31-43 60-100 80-152H728v-56h163" id="as"/><use transform="matrix(0.022222222222222223,0,0,0.022222222222222223,0,0)" xlink:href="#as" id="A"/><path fill="#333" d="M128-290c1-190 41-336 51-467l90 7c-43 152-83 388-59 582 17-45 39-103 55-142l43 32c-32 110-83 193-72 301l-72 5c-20-70-36-184-36-318zm295 13l72 7c-9 36-13 64-13 91 0 45 30 89 166 89 89 0 165-8 245-26l1 84c-61 12-144 20-247 20-227-2-270-93-224-265zm34-315l-1-82c108 18 308 14 407 0v82c-106 11-298 11-406 0" id="at"/><use transform="matrix(0.022222222222222223,0,0,0.022222222222222223,0,0)" xlink:href="#at" id="B"/><path fill="#333" d="M279-839l70 22c-28 70-64 141-103 208V81h-71v-583c-35 49-73 93-110 130-7-17-28-55-42-72 101-95 198-244 256-395zm141 490h177c2-48 1-98 1-148H420v148zm435-148H671c0 50 1 100-1 148h185v-148zm71 211H666c-8 69-26 134-66 192C700-39 826-5 968 12c-16 16-34 45-44 67C783 58 658 19 556-42 506 7 434 49 330 80c-8-16-29-47-45-61C383-6 450-41 496-82c-59-45-108-99-145-163l62-20c30 52 73 96 126 133 32-47 47-99 54-154H351v-274h247v-98H322v-68h276v-107h73v107h288v68H671v98h255v274" id="au"/><use transform="matrix(0.022222222222222223,0,0,0.022222222222222223,0,0)" xlink:href="#au" id="C"/><path fill="#333" d="M164-401c128-25 269-105 442-105 140 0 242 84 242 219C848-96 664 2 397 18l-32-77c214-7 402-67 402-229 0-84-66-145-167-145-123 0-339 90-403 115" id="av"/><use transform="matrix(0.022222222222222223,0,0,0.022222222222222223,0,0)" xlink:href="#av" id="D"/></defs></g></svg>